<svg width="157" height="32" viewBox="0 0 157 32" fill="none" xmlns="http://www.w3.org/2000/svg">
<path d="M49.4977 9.8004H46.8315V6.74516H52.862V25.5717H49.4977V9.79436V9.8004Z" fill="white"/>
<path d="M72.9217 6.41915C75.1004 6.41915 77.0443 7.01088 78.6031 8.09168V11.4971C77.1226 10.2291 75.1545 9.46835 72.9217 9.46835C69.1541 9.46835 66.2953 12.3304 66.2953 16.1705C66.2953 20.0107 69.1481 22.8426 72.9217 22.8426C74.6971 22.8426 76.2619 22.2206 77.4175 21.1398V17.8189H72.1934V14.7637H80.5952V22.3535C78.8739 24.5151 76.0693 25.8917 72.9217 25.8917C67.4027 25.8917 62.9611 21.7859 62.9611 16.1645C62.9611 10.5431 67.4027 6.41312 72.9217 6.41312V6.41915Z" fill="white"/>
<path d="M84.3086 6.74519H87.673V18.0121C87.673 21.3632 89.3702 22.8184 91.928 22.8184C94.4859 22.8184 96.153 21.3572 96.153 18.0121V6.74519H99.5174V18.3623C99.5174 23.386 96.153 25.8736 91.922 25.8736C87.691 25.8736 84.3026 23.386 84.3026 18.3623V6.74519H84.3086ZM87.4322 3.93751C87.4322 2.98954 88.2146 2.26498 89.1294 2.26498C90.0443 2.26498 90.8507 2.99558 90.8507 3.93751C90.8507 4.87944 90.0443 5.58589 89.1294 5.58589C88.2146 5.58589 87.4322 4.85529 87.4322 3.93751ZM93.0053 3.93751C93.0053 2.98954 93.7878 2.26498 94.7266 2.26498C95.6655 2.26498 96.4239 2.99558 96.4239 3.93751C96.4239 4.87944 95.6414 5.58589 94.7266 5.58589C93.8118 5.58589 93.0053 4.85529 93.0053 3.93751Z" fill="white"/>
<path d="M103.965 6.04477L116.754 18.634V6.74518H120.119V26.2782L107.329 13.7432V25.5777H103.965V6.04477Z" fill="white"/>
<path d="M124.699 6.74516H131.403C137.759 6.74516 141.256 10.688 141.256 16.2007C141.256 21.7134 137.783 25.5717 131.427 25.5717H124.699V6.74516ZM131.187 22.5225C136.116 22.5225 137.891 19.7933 137.891 16.2007C137.891 12.6081 136.116 9.8004 131.163 9.8004H128.063V22.5225H131.187Z" fill="white"/>
<path d="M144.861 6.74516H156.813V9.8004H148.225V14.2866H156.278V17.3419H148.225V22.5285H157V25.5838H144.855V6.75724L144.861 6.74516Z" fill="white"/>
<path d="M0.0629883 11.5565L7.32731 0.742416H27.8142L35.6864 11.5565H0.0629883Z" fill="white"/>
<path d="M0.0629883 12.5528H35.6864L17.8777 31.5061L0.0629883 12.5528Z" fill="white"/>
</svg>
