<svg width="235" height="128" viewBox="0 0 235 128" fill="none" xmlns="http://www.w3.org/2000/svg">
<g clip-path="url(#clip0_2351_180)">
<path d="M7.53502 13.0605H0V7.48548H21.0923V13.0605H13.679V35.2391H7.54082V13.0605H7.53502Z" fill="white"/>
<path d="M33.8091 5.89344L48.2821 35.2449H41.744L39.5937 30.8219H27.9897L25.8393 35.2449H19.3418L33.8091 5.89344ZM37.3158 25.6058L33.7685 18.3171L30.2618 25.6058H37.3158Z" fill="white"/>
<path d="M52.2293 7.48548H63.8738C69.0556 7.48548 73.3216 11.4685 73.3216 16.6441C73.3216 20.2681 71.3277 23.2554 68.3774 24.529L75.1532 35.2391H68.2152L62.4364 25.9995H58.3327V35.2391H52.2351V7.48548H52.2293ZM63.1957 20.5865C65.5895 20.5865 67.1834 19.0755 67.1834 16.7251C67.1834 14.5773 65.6706 13.0605 63.7173 13.0605H58.3327V20.5865H63.1957Z" fill="white"/>
<path d="M79.3438 7.48548H85.482V35.2391H79.3438V7.48548ZM79.4597 2.82515C79.4597 1.27363 80.816 0 82.41 0C84.0039 0 85.3602 1.27363 85.3602 2.82515C85.3602 4.37666 84.0445 5.65029 82.41 5.65029C80.7755 5.65029 79.4597 4.41719 79.4597 2.82515Z" fill="white"/>
<path d="M91.9041 7.48548H98.0423V17.8019H110.081V7.48548H116.219V35.2391H110.081V23.3711H98.0423V35.2391H91.9041V7.48548Z" fill="white"/>
<path d="M122.601 7.48548H128.739V35.2391H122.601V7.48548ZM122.722 2.82515C122.722 1.27363 124.079 0 125.673 0C127.267 0 128.623 1.27363 128.623 2.82515C128.623 4.37666 127.307 5.65029 125.673 5.65029C124.038 5.65029 122.722 4.41719 122.722 2.82515Z" fill="white"/>
<path d="M2.19095 49.5211H12.7168C22.408 49.5211 27.4681 55.4146 27.4681 63.4616C27.4681 71.5086 22.4428 77.2805 12.7574 77.2805H2.19095V49.5269V49.5211ZM12.3574 71.7055C19.3766 71.7055 21.2893 68.0409 21.2893 63.4616C21.2893 58.8823 19.3766 55.0961 12.3169 55.0961H8.32909V71.6997H12.3574V71.7055Z" fill="white"/>
<path d="M32.4122 49.5211H51.3889V55.0961H38.5503V60.3123H50.5542V65.7657H38.5503V71.6997H51.6671V77.2747H32.4122V49.5211Z" fill="white"/>
<path d="M70.6496 49.0869C73.8375 49.0869 76.7124 49.8858 79.1004 51.4374V57.4524C76.8689 55.6982 73.9592 54.662 70.6496 54.662C65.7054 54.662 61.8394 58.4076 61.8394 63.4211C61.8394 68.4346 65.7054 72.1397 70.6496 72.1397C73.0434 72.1397 75.1532 71.3813 76.7124 69.9919V66.2462H69.415V60.8275H82.4506V72.0586C79.9003 75.4453 75.5937 77.7147 70.6496 77.7147C62.3958 77.7147 55.7012 71.6997 55.7012 63.4153C55.7012 55.1309 62.4016 49.0811 70.6496 49.0811V49.0869ZM63.555 41.7983H67.7805C68.221 42.9156 69.0962 43.6682 70.5742 43.6682C72.0522 43.6682 72.968 42.9098 73.368 41.7983H77.6339C77.1934 44.7855 74.6837 47.5354 70.5742 47.5354C66.4647 47.5354 63.9956 44.7855 63.555 41.7983Z" fill="white"/>
<path d="M87.8757 49.5211H94.0139V77.2747H87.8757V49.5211ZM87.9975 44.8666C87.9975 43.3151 89.3538 42.0414 90.9477 42.0414C92.5417 42.0414 93.898 43.3151 93.898 44.8666C93.898 46.4181 92.5822 47.6917 90.9477 47.6917C89.3132 47.6917 87.9975 46.4586 87.9975 44.8666Z" fill="white"/>
<path d="M99.2363 68.8398C101.427 70.7503 104.337 72.186 108.609 72.186C111.756 72.186 113.472 71.0281 113.472 69.4361C113.472 67.5256 111.681 66.7673 107.252 65.1752C102.986 63.6642 99.7579 61.3543 99.7579 56.8908C99.7579 51.9121 104.262 49.0869 109.687 49.0869C112.799 49.0869 115.39 49.8453 117.581 51.2V57.2903C115.668 55.6577 113.356 54.7025 109.924 54.7025C107.293 54.7025 105.937 55.6172 105.937 56.8503C105.937 58.9228 109.327 59.7565 112.318 60.9491C117.541 63.0216 119.616 65.1694 119.616 69.4303C119.616 73.6912 116.746 77.0779 110.724 77.6337L110.127 79.1041C111.565 79.1041 112.759 80.2214 112.759 82.0508C112.759 84.6386 110.846 85.9528 107.936 85.9528C106.499 85.9528 104.986 85.4375 104.186 84.876L105.38 82.4098C106.018 82.8092 106.458 82.9655 107.252 82.9655C108.087 82.9655 108.725 82.485 108.725 81.7324C108.725 80.5746 107.849 80.2967 106.371 80.2967L107.449 77.6684C104.18 77.431 101.508 76.5511 99.2363 75.2022V68.8282V68.8398Z" fill="white"/>
<path d="M128.426 55.0961H120.891V49.5211H141.983V55.0961H134.57V77.2747H128.432V55.0961H128.426Z" fill="white"/>
<path d="M146.168 49.5211H152.306V77.2747H146.168V49.5211ZM146.284 44.8666C146.284 43.3151 147.64 42.0414 149.234 42.0414C150.828 42.0414 152.184 43.3151 152.184 44.8666C152.184 46.4181 150.869 47.6917 149.234 47.6917C147.6 47.6917 146.284 46.4586 146.284 44.8666Z" fill="white"/>
<path d="M158.728 49.5211H170.373C175.554 49.5211 179.82 53.5041 179.82 58.6797C179.82 62.3037 177.827 65.291 174.876 66.5646L181.652 77.2747H174.714L168.935 68.0351H164.832V77.2747H158.734V49.5211H158.728ZM169.689 62.6279C172.083 62.6279 173.676 61.117 173.676 58.7665C173.676 56.6187 172.164 55.1019 170.21 55.1019H164.826V62.6279H169.689Z" fill="white"/>
<path d="M185.68 49.5211H204.657V55.0961H191.819V60.3123H203.822V65.7657H191.819V71.6997H204.935V77.2747H185.68V49.5211Z" fill="white"/>
<path d="M210.279 48.4501L228.937 65.2968V49.5269H235V78.3573L216.342 61.5511V77.2805H210.279V48.4501Z" fill="white"/>
<path d="M15.8293 91.1226C19.0172 91.1226 21.8921 91.9215 24.2802 93.473V99.488C22.0486 97.7339 19.139 96.7034 15.8293 96.7034C10.8852 96.7034 7.01916 100.449 7.01916 105.462C7.01916 110.476 10.8852 114.181 15.8293 114.181C18.2232 114.181 20.333 113.423 21.8921 112.033V108.288H14.5948V102.875H27.6303V114.106C25.08 117.493 20.7735 119.762 15.8293 119.762C7.57559 119.762 0.875214 113.747 0.875214 105.468C0.875214 97.1897 7.57559 91.1341 15.8293 91.1341V91.1226Z" fill="white"/>
<path d="M32.6151 91.5625H38.7532V107.454C38.7532 112.311 41.0253 114.181 44.4566 114.181C47.888 114.181 50.1195 112.311 50.1195 107.454V91.5625H56.2576V108.091C56.2576 115.935 50.9136 119.756 44.4566 119.756C37.9997 119.756 32.6151 115.935 32.6151 108.091V91.5625ZM37.3969 87.2206C37.3969 85.6691 38.7126 84.4302 40.266 84.4302C41.8194 84.4302 43.1757 85.6633 43.1757 87.2206C43.1757 88.7779 41.8599 89.9705 40.266 89.9705C38.6721 89.9705 37.3969 88.7374 37.3969 87.2206ZM45.6912 87.2206C45.6912 85.6691 47.0069 84.4302 48.6009 84.4302C50.1948 84.4302 51.47 85.6633 51.47 87.2206C51.47 88.7779 50.1543 89.9705 48.6009 89.9705C47.0475 89.9705 45.6912 88.7374 45.6912 87.2206Z" fill="white"/>
<path d="M62.1987 91.5626H68.3369V113.741H79.1815V119.316H62.1987V91.5626Z" fill="white"/>
<path d="M82.3346 91.5625H88.4727V107.454C88.4727 112.311 90.7448 114.181 94.1762 114.181C97.6075 114.181 99.839 112.311 99.839 107.454V91.5625H105.977V108.091C105.977 115.935 100.633 119.756 94.1762 119.756C87.7192 119.756 82.3346 115.935 82.3346 108.091V91.5625ZM87.1164 87.2206C87.1164 85.6691 88.4322 84.4302 89.9855 84.4302C91.5389 84.4302 92.8952 85.6633 92.8952 87.2206C92.8952 88.7779 91.5795 89.9705 89.9855 89.9705C88.3916 89.9705 87.1164 88.7374 87.1164 87.2206ZM95.4108 87.2206C95.4108 85.6691 96.7265 84.4302 98.3204 84.4302C99.9144 84.4302 101.19 85.6633 101.19 87.2206C101.19 88.7779 99.8738 89.9705 98.3204 89.9705C96.7671 89.9705 95.4108 88.7374 95.4108 87.2206Z" fill="white"/>
<path d="M110.724 110.875C112.915 112.786 115.825 114.222 120.097 114.222C123.244 114.222 124.96 113.07 124.96 111.472C124.96 109.561 123.163 108.803 118.74 107.211C114.474 105.7 111.246 103.39 111.246 98.9265C111.246 93.9477 115.75 91.1226 121.175 91.1226C124.287 91.1226 126.878 91.881 129.069 93.2356V99.3259C127.156 97.6933 124.844 96.7381 121.412 96.7381C118.781 96.7381 117.425 97.6528 117.425 98.8859C117.425 100.958 120.815 101.792 123.806 102.985C129.029 105.057 131.104 107.205 131.104 111.466C131.104 115.727 128.234 119.114 122.212 119.669L121.615 121.14C123.053 121.14 124.247 122.257 124.247 124.086C124.247 126.674 122.334 127.988 119.424 127.988C117.987 127.988 116.474 127.473 115.674 126.912L116.868 124.445C117.506 124.845 117.946 125.001 118.74 125.001C119.575 125.001 120.218 124.521 120.218 123.768C120.218 122.616 119.343 122.332 117.865 122.332L118.943 119.704C115.674 119.467 113.002 118.587 110.73 117.232V110.858L110.724 110.875Z" fill="white"/>
</g>
<defs>
<clipPath id="clip0_2351_180">
<rect width="235" height="128" fill="white"/>
</clipPath>
</defs>
</svg>
