<svg width="179" height="36" viewBox="0 0 179 36" fill="none" xmlns="http://www.w3.org/2000/svg">
<path d="M0.0629883 4.79132H4.72526C9.14184 4.79132 11.5749 7.53283 11.5749 11.3625C11.5749 15.1922 9.15982 17.8796 4.74324 17.8796H0.0629883V4.79132ZM4.56945 15.7574C7.99724 15.7574 9.23173 13.8636 9.23173 11.3625C9.23173 8.8615 7.99725 6.91358 4.55148 6.91358H2.40012V15.7574H4.56945Z" fill="white"/>
<path d="M17.933 4.15402L24.3691 17.8796H21.8822L20.7196 15.3425H15.1045L13.9419 17.8796H11.473L17.933 4.15402ZM19.8447 13.3164L17.9151 9.05387L15.9854 13.3164H19.8387H19.8447Z" fill="white"/>
<path d="M25.7355 4.79132H28.0726V9.90159H34.3409V4.79132H36.6601V17.8796H34.3409V12.0178H28.0726V17.8796H25.7355V4.79132Z" fill="white"/>
<path d="M44.4925 4.15402L50.9346 17.8796H48.4476L47.285 15.3425H41.6699L40.5074 17.8796H38.0384L44.4985 4.15402H44.4925ZM46.3981 13.3164L44.4685 9.05387L42.5389 13.3164H46.3921H46.3981Z" fill="white"/>
<path d="M55.5129 4.79135H60.2291C62.2666 4.79135 63.8787 6.19817 63.8787 8.13406C63.8787 9.39059 63.2614 10.3706 62.2127 10.7613C63.9326 11.08 64.8315 12.3786 64.8315 14.0079C64.8315 16.2263 63.1476 17.8736 60.8644 17.8736H55.5129V4.78534V4.79135ZM59.9115 10.07C60.9063 10.07 61.5955 9.39661 61.5955 8.45271C61.5955 7.58697 60.9003 6.91361 59.9295 6.91361H57.8501V10.07H59.9115ZM60.4748 15.7574C61.6554 15.7574 62.5123 14.9518 62.5123 13.8816C62.5123 12.8115 61.6674 12.0419 60.4509 12.0419H57.8501V15.7574H60.4689H60.4748Z" fill="white"/>
<path d="M66.5513 4.79132H74.8631V6.91358H68.8945V10.0339H74.4916V12.1561H68.8945V15.7634H74.995V17.8856H66.5513V4.79734V4.79132Z" fill="white"/>
<path d="M80.1426 12.8114L75.4444 4.79132H77.9733L81.3232 10.5569L84.6551 4.79132H87.166L82.4678 12.8114V17.8796H80.1486V12.8114H80.1426Z" fill="white"/>
<path d="M91.7804 4.15402L98.2225 17.8796H95.7355L94.5729 15.3425H88.9578L87.7953 17.8796H85.3263L91.7864 4.15402H91.7804ZM93.692 13.3164L91.7624 9.05387L89.8328 13.3164H93.686H93.692Z" fill="white"/>
<path d="M105.348 6.91358H99.3371V4.79132H109.315L101.962 15.7574H109.039V17.8796H97.9767L105.354 6.91358H105.348Z" fill="white"/>
<path d="M114.551 4.26657H119.213C123.629 4.26657 126.062 7.00808 126.062 10.8378C126.062 14.6675 123.647 17.3549 119.231 17.3549H114.551V4.26657ZM119.063 15.2326C122.491 15.2326 123.725 13.3388 123.725 10.8378C123.725 8.33675 122.491 6.38883 119.045 6.38883H116.894V15.2326H119.063Z" fill="white"/>
<path d="M127.854 2.06609C127.854 1.41078 128.417 0.89975 129.053 0.89975C129.724 0.89975 130.269 1.40477 130.269 2.06609C130.269 2.72742 129.724 3.25048 129.053 3.25048C128.417 3.25048 127.854 2.74546 127.854 2.06609ZM127.89 4.26652H130.227V17.3548H127.89V4.26652Z" fill="white"/>
<path d="M132.085 13.7477C133.206 14.7817 134.518 15.4731 136.316 15.4731C137.982 15.4731 138.827 14.6855 138.827 13.8559C138.827 12.6895 137.946 12.2567 135.908 11.3969C133.961 10.5733 132.445 9.65343 132.445 7.53116C132.445 5.4089 134.314 4.03815 136.825 4.03815C138.156 4.03815 139.312 4.37482 140.271 5.05419V7.45902C139.354 6.6534 138.305 6.18445 136.885 6.18445C135.537 6.18445 134.788 6.74959 134.788 7.53717C134.788 8.58929 136.136 9.0402 137.598 9.69552C139.935 10.7296 141.152 11.7637 141.152 13.8619C141.152 15.6835 139.839 17.2407 137.335 17.5232L137.035 18.2206C137.706 18.2206 138.269 18.7437 138.269 19.5914C138.269 20.7577 137.424 21.2988 136.136 21.2988C135.519 21.2988 134.866 21.0704 134.524 20.8299L135.009 19.8319C135.327 20.0183 135.531 20.1145 135.944 20.1145C136.358 20.1145 136.675 19.8679 136.675 19.4952C136.675 18.912 136.226 18.7798 135.477 18.7798L135.962 17.5593C134.392 17.4631 133.098 16.9761 132.085 16.2427V13.7477Z" fill="white"/>
<path d="M142.806 4.26657H145.143V15.2326H150.327V17.3549H142.8V4.26657H142.806Z" fill="white"/>
<path d="M151.921 4.26657H160.232V6.38883H154.264V9.50911H159.861V11.6314H154.264V15.2386H160.364V17.3609H151.921V4.27258V4.26657Z" fill="white"/>
<path d="M162.288 4.26658H167.358C169.677 4.26658 171.589 6.05216 171.589 8.41491C171.589 10.1404 170.618 11.5532 169.209 12.1304L172.374 17.3489H169.737L166.95 12.6895H164.631V17.3489H162.294V4.26056L162.288 4.26658ZM167.118 10.5913C168.388 10.5913 169.269 9.7075 169.269 8.45098C169.269 7.19446 168.424 6.38282 167.304 6.38282H164.625V10.5913H167.112H167.118Z" fill="white"/>
<path d="M172.955 8.91992L174.303 7.39887L172.338 6.89385L172.841 5.44494L174.675 6.26859L174.489 4.26056H176.059L175.891 6.26859L177.743 5.44494L178.228 6.89385L176.281 7.39887L177.629 8.91992L176.359 9.83977L175.274 8.15038L174.189 9.83977L172.955 8.91992Z" fill="white"/>
<path d="M2.6855 28.6783L1.91675 29.6931V29.7066L3.1373 29.5442V30.099L1.91675 29.9502V29.9637L2.69224 30.9379L2.17974 31.2288L1.69422 30.0922H1.68073L1.15475 31.2356L0.696197 30.9447L1.46494 29.9569V29.9434L0.271362 30.099V29.5442L1.4582 29.6999V29.6863L0.696197 28.6986L1.18846 28.4144L1.68747 29.5442H1.70096L2.19323 28.4077L2.67875 28.6851L2.6855 28.6783Z" fill="white"/>
<path d="M5.20751 33.9619V31.6415L3.48795 28.4956H4.29041L5.05915 30.0043C5.2682 30.4169 5.43004 30.7484 5.59863 31.1341H5.61211C5.76721 30.7755 5.94928 30.4169 6.16507 30.0043L6.94731 28.4956H7.74977L5.92231 31.6347V33.9619H5.20751Z" fill="white"/>
<path d="M11.1956 32.8931C11.1956 33.299 11.2024 33.6576 11.2293 33.962H10.5955L10.555 33.3193H10.5415C10.3527 33.6373 9.94135 34.05 9.24678 34.05C8.63313 34.05 7.8981 33.7117 7.8981 32.3316V30.0382H8.6129V32.2098C8.6129 32.954 8.84217 33.4614 9.48954 33.4614C9.96832 33.4614 10.2987 33.1299 10.4269 32.8119C10.4673 32.7037 10.4943 32.5751 10.4943 32.4466V30.0382H11.2091V32.8931H11.1956ZM8.42409 28.9219C8.42409 28.6919 8.6129 28.5092 8.83543 28.5092C9.05796 28.5092 9.23329 28.6851 9.23329 28.9219C9.23329 29.1384 9.07145 29.3346 8.83543 29.3346C8.59941 29.3346 8.42409 29.1384 8.42409 28.9219ZM9.92786 28.9219C9.92786 28.6919 10.1032 28.5092 10.3325 28.5092C10.5617 28.5092 10.7303 28.6851 10.7303 28.9219C10.7303 29.1384 10.5685 29.3346 10.3325 29.3346C10.0964 29.3346 9.92786 29.1384 9.92786 28.9219Z" fill="white"/>
<path d="M11.9374 33.5493L13.7109 31.2356C13.8795 31.0258 14.0414 30.8364 14.2234 30.6267V30.6132H12.106V30.0381H15.0933V30.4846L13.3401 32.7645C13.1782 32.981 13.0164 33.1772 12.8411 33.3801V33.3937H15.1271V33.962H11.9509V33.5493H11.9374Z" fill="white"/>
<path d="M16.179 32.1285C16.1925 33.096 16.8129 33.4883 17.521 33.4883C18.0335 33.4883 18.3369 33.4004 18.6067 33.2854L18.728 33.7995C18.4785 33.9145 18.047 34.0431 17.4266 34.0431C16.2195 34.0431 15.5047 33.2448 15.5047 32.0609C15.5047 30.8769 16.1993 29.9433 17.3389 29.9433C18.6201 29.9433 18.9573 31.0731 18.9573 31.7903C18.9573 31.9391 18.9438 32.0473 18.9303 32.1217H16.179V32.1285ZM18.2695 31.6144C18.2762 31.1611 18.0807 30.4575 17.285 30.4575C16.5634 30.4575 16.2465 31.1205 16.1925 31.6144H18.2695Z" fill="white"/>
<path d="M20.0969 30.0381L20.9533 32.3586C21.041 32.6157 21.1421 32.9269 21.2028 33.1637H21.2163C21.2905 32.9269 21.3714 32.6292 21.4658 32.3451L22.2413 30.0381H22.9966L21.9311 32.839C21.4186 34.1853 21.0747 34.8753 20.5892 35.2947C20.2385 35.606 19.8946 35.7277 19.7125 35.7548L19.5372 35.1527C19.7125 35.0986 19.9485 34.9835 20.1576 34.8009C20.3531 34.6453 20.5959 34.3747 20.7578 34.0094C20.7915 33.9349 20.8117 33.8808 20.8117 33.8402C20.8117 33.7996 20.7982 33.7455 20.7645 33.6508L19.3147 30.0314H20.0902L20.0969 30.0381Z" fill="white"/>
<path d="M25.3702 28.2047H26.085V33.9619H25.3702V28.2047Z" fill="white"/>
<path d="M27.6698 32.1285C27.6833 33.096 28.3037 33.4883 29.0117 33.4883C29.5242 33.4883 29.8277 33.4004 30.0974 33.2854L30.2188 33.7995C29.9693 33.9145 29.5377 34.0431 28.9173 34.0431C27.7103 34.0431 26.9955 33.2448 26.9955 32.0609C26.9955 30.8769 27.69 29.9433 28.8297 29.9433C30.1109 29.9433 30.4481 31.0731 30.4481 31.7903C30.4481 31.9391 30.4346 32.0473 30.4211 32.1217H27.6698V32.1285ZM29.7602 31.6144C29.767 31.1611 29.5714 30.4575 28.7757 30.4575C28.0542 30.4575 27.7372 31.1205 27.6833 31.6144H29.7602Z" fill="white"/>
<path d="M32.0327 31.8376H32.0462C32.1406 31.7023 32.2822 31.5264 32.3968 31.3911L33.5432 30.0381H34.3996L32.8891 31.655L34.6087 33.9687H33.7455L32.3968 32.088L32.0327 32.4939V33.9687H31.3314V28.2115H32.0327V31.8444V31.8376Z" fill="white"/>
<path d="M35.5191 32.1285C35.5326 33.096 36.153 33.4883 36.861 33.4883C37.3735 33.4883 37.677 33.4004 37.9467 33.2854L38.0681 33.7995C37.8186 33.9145 37.387 34.0431 36.7666 34.0431C35.5596 34.0431 34.8448 33.2448 34.8448 32.0609C34.8448 30.8769 35.5393 29.9433 36.679 29.9433C37.9602 29.9433 38.2974 31.0731 38.2974 31.7903C38.2974 31.9391 38.2839 32.0473 38.2704 32.1217H35.5191V32.1285ZM37.6096 31.6144C37.6163 31.1611 37.4207 30.4575 36.625 30.4575C35.9035 30.4575 35.5865 31.1205 35.5326 31.6144H37.6096Z" fill="white"/>
<path d="M39.1807 28.2047H39.8955V33.9619H39.1807V28.2047Z" fill="white"/>
<path d="M41.487 32.1285C41.5004 33.096 42.1208 33.4883 42.8289 33.4883C43.3414 33.4883 43.6448 33.4004 43.9146 33.2854L44.036 33.7995C43.7865 33.9145 43.3549 34.0431 42.7345 34.0431C41.5274 34.0431 40.8126 33.2448 40.8126 32.0609C40.8126 30.8769 41.5072 29.9433 42.6468 29.9433C43.9281 29.9433 44.2652 31.0731 44.2652 31.7903C44.2652 31.9391 44.2517 32.0473 44.2383 32.1217H41.487V32.1285ZM43.5707 31.6144C43.5774 31.1611 43.3819 30.4575 42.5861 30.4575C41.8646 30.4575 41.5476 31.1205 41.4937 31.6144H43.5707Z" fill="white"/>
<path d="M45.1419 31.2627C45.1419 30.8026 45.1351 30.4035 45.1082 30.0381H45.7285L45.7555 30.8094H45.7892C45.9646 30.2817 46.3961 29.9502 46.8749 29.9502C46.9558 29.9502 47.0098 29.957 47.0772 29.9773V30.6538C47.003 30.6402 46.9289 30.6267 46.8345 30.6267C46.3355 30.6267 45.9781 31.0056 45.8769 31.5468C45.8634 31.6415 45.8432 31.7565 45.8432 31.8783V33.9688H45.1419V31.2694V31.2627Z" fill="white"/>
<path d="M48.6148 28.9286C48.6215 29.1722 48.4462 29.3684 48.163 29.3684C47.9135 29.3684 47.7314 29.1722 47.7314 28.9286C47.7314 28.6851 47.9202 28.4821 48.1765 28.4821C48.4327 28.4821 48.6148 28.6783 48.6148 28.9286ZM47.8191 33.962V30.0381H48.5338V33.962H47.8191Z" fill="white"/>
<path d="M49.7139 31.1003C49.7139 30.6944 49.7071 30.3629 49.6802 30.0381H50.3141L50.3545 30.6876H50.368C50.5636 30.3155 51.0154 29.9502 51.6627 29.9502C52.2022 29.9502 53.0451 30.2749 53.0451 31.6212V33.9688H52.3303V31.7024C52.3303 31.0665 52.0943 30.5455 51.4267 30.5455C50.9547 30.5455 50.5905 30.877 50.4692 31.2762C50.4354 31.3641 50.422 31.4859 50.422 31.6077V33.9688H49.7071V31.1071L49.7139 31.1003Z" fill="white"/>
<path d="M55.0008 28.9286C55.0075 29.1722 54.8322 29.3684 54.5489 29.3684C54.2994 29.3684 54.1174 29.1722 54.1174 28.9286C54.1174 28.6851 54.3062 28.4821 54.5624 28.4821C54.8187 28.4821 55.0008 28.6783 55.0008 28.9286ZM54.205 33.962V30.0381H54.9198V33.962H54.205Z" fill="white"/>
<path d="M61.1911 30.0381C61.1777 30.3223 61.1574 30.6402 61.1574 31.1206V33.4005C61.1574 34.3002 60.9821 34.855 60.5977 35.1933C60.2201 35.5518 59.6671 35.6668 59.1749 35.6668C58.6826 35.6668 58.1903 35.5518 57.8734 35.3421L58.0487 34.8009C58.305 34.9632 58.7096 35.1121 59.1951 35.1121C59.9234 35.1121 60.4561 34.7332 60.4561 33.7387V33.299H60.4426C60.2268 33.6643 59.802 33.9552 59.1951 33.9552C58.2241 33.9552 57.5295 33.1299 57.5295 32.0406C57.5295 30.7079 58.3926 29.9569 59.2895 29.9569C59.9706 29.9569 60.3415 30.3155 60.5101 30.6402H60.5235L60.5573 30.0449H61.1777L61.1911 30.0381ZM60.4494 31.5874C60.4494 31.4656 60.4426 31.3574 60.4089 31.2626C60.2808 30.85 59.9301 30.5049 59.4176 30.5049C58.7365 30.5049 58.251 31.08 58.251 31.9933C58.251 32.7645 58.6421 33.4072 59.4109 33.4072C59.8492 33.4072 60.2471 33.1299 60.3954 32.6766C60.4359 32.5548 60.4494 32.4195 60.4494 32.2977V31.5941V31.5874Z" fill="white"/>
<path d="M63.086 28.9286C63.0928 29.1722 62.9174 29.3684 62.6342 29.3684C62.3847 29.3684 62.2026 29.1722 62.2026 28.9286C62.2026 28.6851 62.3914 28.4821 62.6477 28.4821C62.9039 28.4821 63.086 28.6783 63.086 28.9286ZM62.2903 33.962V30.0381H63.0051V33.962H62.2903Z" fill="white"/>
<path d="M67.5636 28.2047V32.9539C67.5636 33.3057 67.5704 33.6981 67.5973 33.9687H66.9567L66.923 33.2854H66.9095C66.6937 33.7252 66.2149 34.0567 65.5743 34.0567C64.6303 34.0567 63.902 33.2516 63.902 32.0609C63.8952 30.7552 64.7044 29.9502 65.6552 29.9502C66.2554 29.9502 66.66 30.2343 66.8353 30.5523H66.8488V28.2047H67.5636ZM66.8556 31.6347C66.8556 31.5467 66.8488 31.425 66.8218 31.337C66.714 30.8838 66.3296 30.5117 65.7969 30.5117C65.0618 30.5117 64.6235 31.1611 64.6235 32.0271C64.6235 32.8254 65.0146 33.4816 65.7766 33.4816C66.2554 33.4816 66.6937 33.1636 66.8218 32.6292C66.8488 32.5345 66.8556 32.433 66.8556 32.318V31.6347Z" fill="white"/>
<path d="M69.1416 32.1285C69.1551 33.096 69.7754 33.4883 70.4835 33.4883C70.996 33.4883 71.2995 33.4004 71.5692 33.2854L71.6906 33.7995C71.4411 33.9145 71.0095 34.0431 70.3891 34.0431C69.182 34.0431 68.4672 33.2448 68.4672 32.0609C68.4672 30.8769 69.1618 29.9433 70.3014 29.9433C71.5827 29.9433 71.9198 31.0731 71.9198 31.7903C71.9198 31.9391 71.9064 32.0473 71.8929 32.1217H69.1416V32.1285ZM71.232 31.6144C71.2388 31.1611 71.0432 30.4575 70.2475 30.4575C69.5259 30.4575 69.209 31.1205 69.1551 31.6144H71.232Z" fill="white"/>
<path d="M72.8033 31.2627C72.8033 30.8026 72.7965 30.4035 72.7695 30.0381H73.3899L73.4169 30.8094H73.4506C73.6259 30.2817 74.0575 29.9502 74.5363 29.9502C74.6172 29.9502 74.6712 29.957 74.7386 29.9773V30.6538C74.6644 30.6402 74.5902 30.6267 74.4958 30.6267C73.9968 30.6267 73.6394 31.0056 73.5383 31.5468C73.5248 31.6415 73.5046 31.7565 73.5046 31.8783V33.9688H72.8033V31.2694V31.2627Z" fill="white"/>
<path d="M75.7636 32.1285C75.7771 33.096 76.3974 33.4883 77.1055 33.4883C77.618 33.4883 77.9215 33.4004 78.1912 33.2854L78.3126 33.7995C78.0631 33.9145 77.6315 34.0431 77.0111 34.0431C75.804 34.0431 75.0892 33.2448 75.0892 32.0609C75.0892 30.8769 75.7838 29.9433 76.9234 29.9433C78.2047 29.9433 78.5418 31.0731 78.5418 31.7903C78.5418 31.9391 78.5284 32.0473 78.5149 32.1217H75.7636V32.1285ZM77.8473 31.6144C77.854 31.1611 77.6585 30.4575 76.8627 30.4575C76.1412 30.4575 75.8243 31.1205 75.7703 31.6144H77.8473Z" fill="white"/>
<path d="M79.4185 31.2627C79.4185 30.8026 79.4118 30.4035 79.3848 30.0381H80.0052L80.0322 30.8094H80.0659C80.2412 30.2817 80.6728 29.9502 81.1516 29.9502C81.2325 29.9502 81.2865 29.957 81.3539 29.9773V30.6538C81.2797 30.6402 81.2055 30.6267 81.1111 30.6267C80.6121 30.6267 80.2547 31.0056 80.1536 31.5468C80.1401 31.6415 80.1199 31.7565 80.1199 31.8783V33.9688H79.4185V31.2694V31.2627Z" fill="white"/>
<path d="M82.3856 32.1285C82.3991 33.096 83.0195 33.4883 83.7276 33.4883C84.2401 33.4883 84.5435 33.4004 84.8133 33.2854L84.9346 33.7995C84.6851 33.9145 84.2536 34.0431 83.6332 34.0431C82.4261 34.0431 81.7113 33.2448 81.7113 32.0609C81.7113 30.8769 82.4059 29.9433 83.5455 29.9433C84.8268 29.9433 85.1639 31.0731 85.1639 31.7903C85.1639 31.9391 85.1504 32.0473 85.1369 32.1217H82.3856V32.1285ZM84.4693 31.6144C84.4761 31.1611 84.2805 30.4575 83.4848 30.4575C82.7633 30.4575 82.4463 31.1205 82.3924 31.6144H84.4693Z" fill="white"/>
<path d="M86.7418 31.8376H86.7553C86.8497 31.7023 86.9913 31.5264 87.106 31.3911L88.2524 30.0381H89.1088L87.5982 31.655L89.3178 33.9687H88.4547L87.106 32.088L86.7418 32.4939V33.9687H86.0405V28.2115H86.7418V31.8444V31.8376Z" fill="white"/>
</svg>
