<svg width="114" height="21" viewBox="0 0 114 21" fill="none" xmlns="http://www.w3.org/2000/svg">
<path d="M72.5737 18.6719C72.4213 16.7094 77.2036 14.6136 80.4426 13.3942C78.423 11.889 73.3358 12.3654 73.031 9.43121C72.688 6.23031 77.8514 2.85794 80.3092 1.69571C81.319 1.23844 83.5673 0.381058 85.3583 0.381058C86.5776 0.381058 87.5874 0.762117 87.8923 1.90529C88.3877 3.75343 87.1302 5.96357 85.8917 7.24012C85.7965 7.33538 85.644 7.33538 85.5488 7.24012C85.4535 7.14485 85.4535 6.99243 85.5488 6.89716C86.6539 5.75399 87.8732 3.69627 87.416 2.03866C87.1873 1.16223 86.349 0.876434 85.3392 0.876434C83.7959 0.876434 81.8716 1.54329 81.0713 1.88624C78.6516 2.93415 73.6216 6.07789 73.5073 9.0692C73.4121 11.3746 77.2036 11.6223 78.9184 12.1558C79.6424 12.3844 80.4045 12.7274 80.938 13.2037C82.6146 12.594 84.3103 12.0034 86.0061 11.4318C86.1204 11.3746 86.2728 11.4508 86.3109 11.5842C86.349 11.6985 86.2918 11.8509 86.1585 11.889C85.3773 12.1558 83.453 12.7845 81.3 13.6038C81.662 14.0801 81.8525 14.6708 81.7191 15.4138C81.2809 17.7764 77.0702 20.1009 74.5171 20.1009C73.4311 20.1009 72.6499 19.6817 72.5737 18.6719ZM73.0691 18.4814C72.9738 19.2816 73.5645 19.6055 74.46 19.6055C76.7844 19.6055 81.1857 17.3572 81.2619 15.0518C81.2809 14.5183 81.1285 14.0992 80.8427 13.7753C77.2417 15.1471 73.2406 16.9952 73.0691 18.4814ZM80.6121 8.02129C80.593 7.90697 80.6692 7.79265 80.7836 7.75455C81.7934 7.56402 84.7275 7.22106 87.8141 6.99243C88.3666 5.52535 88.9001 4.32502 89.0906 3.90585C89.1478 3.79153 89.2621 3.75343 89.3764 3.79153C89.4908 3.84869 89.5289 3.98206 89.4908 4.09638C89.3574 4.40123 88.862 5.52535 88.3095 6.95432C90.2719 6.82095 92.2344 6.70663 93.7967 6.70663C95.1304 6.70663 96.1593 6.78285 96.5785 6.97338C96.9214 7.14485 96.9214 7.41159 96.6356 7.65928C96.5403 7.73549 96.407 7.71644 96.3308 7.62118C96.2736 7.54496 96.2736 7.43065 96.3308 7.35443C95.8354 7.22106 94.8827 7.16391 93.6634 7.16391C92.101 7.16391 90.1005 7.25917 88.138 7.39254C86.9567 10.5363 85.6802 14.7279 87.1282 14.8613C88.4047 14.9566 90.3672 12.594 91.1103 11.7176C91.1865 11.6223 91.3198 11.6032 91.4151 11.6795C91.5104 11.7747 91.5294 11.9081 91.4342 12.0034C90.5768 13.0322 88.4619 15.6234 86.8996 15.2614C85.2038 14.8803 86.4232 10.6506 87.6426 7.43065C84.7275 7.65928 81.9839 7.98318 80.8788 8.19276C80.7645 8.21182 80.6502 8.13561 80.6121 8.02129ZM91.4271 14.6136C90.0934 14.385 91.5605 11.4127 91.8653 10.8602C91.9225 10.7649 92.0559 10.7268 92.1511 10.784C92.2654 10.8411 92.3036 10.9745 92.2273 11.0888C91.9797 11.5461 90.9698 13.6991 91.4271 14.1373C91.9034 14.5946 93.7325 12.0986 94.5709 11.1079C94.628 11.0507 94.8757 10.7268 94.971 10.7268C95.4854 10.6696 94.99 11.4508 94.971 11.508C94.1898 13.2799 94.2088 14.9756 96.3618 13.3942C97.0477 12.9179 97.6003 12.3273 98.1909 11.7366C98.2671 11.6413 98.4005 11.6413 98.4958 11.7176C98.572 11.8128 98.591 11.9462 98.4958 12.0415C97.7908 12.7845 95.9617 14.7089 94.7804 14.4421C93.9993 14.2516 93.9421 13.4133 94.1326 12.5559C94.1898 12.3082 94.1707 12.251 94.0183 12.4606C93.1419 13.5085 92.094 14.7279 91.4271 14.6136ZM98.3851 14.6708C96.5179 14.7279 98.5756 10.6125 100.176 10.5363C100.595 10.4982 100.881 10.6506 101.053 10.9173C102.634 8.26898 104.292 4.87755 104.901 4.00112L104.939 3.9249C105.016 3.84869 105.054 3.81059 105.092 3.81059C105.358 3.73438 105.358 3.9249 105.301 4.13449H105.32C105.301 4.15354 105.301 4.15354 105.301 4.17259C105.225 4.38218 105.092 4.61081 105.092 4.61081C104.349 6.21126 98.7662 18.2337 100.005 19.4721C100.062 19.5293 100.119 19.5293 100.195 19.5293C100.329 19.5293 100.424 19.6245 100.443 19.7388C100.443 19.8722 100.348 19.9675 100.233 19.9675C100.062 19.9675 99.9475 19.9675 99.795 19.8722C98.6328 19.1292 100.424 14.1754 102.215 9.94563C102.329 9.65984 102.367 9.52647 102.158 9.88848C101.853 10.422 101.548 10.9554 101.243 11.4508C101.243 11.527 101.186 11.6223 101.11 11.6604C100.043 13.3561 99.0329 14.6517 98.3851 14.6708ZM100.1 10.9745C98.8233 11.2603 97.5658 14.2516 98.3089 14.2516C98.3661 14.2516 98.4423 14.2325 98.5185 14.1944C99.0901 13.9086 99.9093 12.7845 100.786 11.3746C100.691 11.0507 100.481 10.8983 100.1 10.9745ZM104.426 14.4421C103.035 14.0992 104.197 11.3937 104.54 10.6696C104.597 10.5553 104.731 10.5172 104.845 10.5744C104.959 10.6315 104.997 10.7649 104.94 10.8792C104.14 12.5178 103.835 14.042 104.712 14.042C105.664 14.042 107.284 12.4225 107.97 11.7366C108.046 11.6413 108.198 11.6413 108.274 11.7176C108.37 11.8128 108.37 11.9462 108.293 12.0415C107.55 12.8036 105.626 14.7279 104.426 14.4421ZM105.035 9.77416C104.921 9.75511 104.845 9.62173 104.864 9.50742C105.074 8.89772 105.245 8.55477 105.55 8.00223C105.607 7.88792 105.74 7.86886 105.855 7.92602C105.95 7.98318 105.988 8.11655 105.931 8.23087C105.645 8.72625 105.493 9.0692 105.302 9.62173C105.264 9.73605 105.15 9.81226 105.035 9.77416ZM110.728 13.3752C110.157 14.404 109.357 14.9185 108.709 14.9185C108.004 14.9185 107.509 14.3088 107.794 13.0513C108.099 11.7176 108.823 11.0317 109.433 10.8792C109.642 10.6125 109.928 10.441 110.271 10.441C111.3 10.4029 111.319 11.7176 111.091 12.4797C111.033 12.6321 110.995 12.7845 110.919 12.9369C111.853 12.8798 112.596 12.4225 113.282 11.7938C113.358 11.7176 113.491 11.7176 113.586 11.7938C113.682 11.87 113.682 12.0224 113.586 12.0986C112.767 12.8607 111.872 13.3942 110.728 13.3752ZM109.109 11.527C107.928 12.6702 107.909 14.5183 108.747 14.5183C109.338 14.5183 109.909 13.7753 110.195 13.318C109.166 13.0894 108.918 12.251 109.109 11.527ZM109.7 11.2793C109.357 11.8319 109.338 12.7464 110.424 12.9179C110.824 12.1177 111.052 11.165 110.424 10.8983C110.309 10.8411 110.176 10.8602 110.043 10.9364C110.271 11.0507 110.424 11.3174 110.405 11.6985C110.386 11.8128 110.271 11.9081 110.157 11.889C110.043 11.87 109.947 11.7747 109.966 11.6413C109.985 11.4127 109.852 11.2984 109.7 11.2793Z" fill="black"/>
<path d="M72.5737 18.6719L72.6801 18.6639L72.68 18.6636L72.5737 18.6719ZM80.4426 13.3942L80.4802 13.494L80.6627 13.4253L80.5063 13.3087L80.4426 13.3942ZM73.031 9.43121L73.1371 9.42019L73.137 9.41985L73.031 9.43121ZM80.3092 1.69571L80.2652 1.59857L80.2636 1.59932L80.3092 1.69571ZM87.8923 1.90529L87.7893 1.93277L87.7893 1.9329L87.8923 1.90529ZM85.8917 7.24012L85.9671 7.31552L85.9683 7.31436L85.8917 7.24012ZM85.5488 6.89716L85.6242 6.97257L85.6254 6.97127L85.5488 6.89716ZM87.416 2.03866L87.3128 2.06558L87.3132 2.06702L87.416 2.03866ZM81.0713 1.88624L81.0293 1.78824L81.029 1.7884L81.0713 1.88624ZM73.5073 9.0692L73.6139 9.0736L73.6139 9.07327L73.5073 9.0692ZM78.9184 12.1558L78.9505 12.0541L78.95 12.054L78.9184 12.1558ZM80.938 13.2037L80.867 13.2832L80.9145 13.3257L80.9744 13.3039L80.938 13.2037ZM86.0061 11.4318L86.0401 11.5328L86.0471 11.5304L86.0537 11.5271L86.0061 11.4318ZM86.3109 11.5842L86.2083 11.6135L86.2097 11.6179L86.3109 11.5842ZM86.1585 11.889L86.1291 11.7864L86.124 11.7881L86.1585 11.889ZM81.3 13.6038L81.2621 13.5041L81.1288 13.5548L81.2151 13.6683L81.3 13.6038ZM81.7191 15.4138L81.824 15.4333L81.8241 15.4327L81.7191 15.4138ZM73.0691 18.4814L73.175 18.494L73.175 18.4936L73.0691 18.4814ZM81.2619 15.0518L81.1553 15.048L81.1553 15.0483L81.2619 15.0518ZM80.8427 13.7753L80.9227 13.7047L80.8738 13.6493L80.8047 13.6756L80.8427 13.7753ZM72.68 18.6636C72.6455 18.2189 72.89 17.7488 73.3599 17.2651C73.8277 16.7836 74.5029 16.3053 75.2901 15.8465C76.8635 14.9295 78.862 14.1032 80.4802 13.494L80.405 13.2944C78.7842 13.9046 76.7721 14.7359 75.1827 15.6623C74.3884 16.1252 73.6943 16.615 73.207 17.1165C72.7219 17.6158 72.4258 18.1437 72.4674 18.6801L72.68 18.6636ZM80.5063 13.3087C79.9845 12.9199 79.2715 12.6633 78.5039 12.4499C78.119 12.3429 77.7171 12.2459 77.3154 12.1489C76.9131 12.0516 76.5109 11.9542 76.1224 11.8459C75.3437 11.6286 74.631 11.37 74.0954 10.9897C73.564 10.6124 73.2095 10.1176 73.1371 9.42019L72.9249 9.44222C73.0049 10.2119 73.4006 10.7579 73.9719 11.1635C74.539 11.5662 75.2815 11.8327 76.0651 12.0513C76.4578 12.1608 76.8636 12.259 77.2653 12.3561C77.6678 12.4534 78.066 12.5495 78.4468 12.6553C79.2107 12.8677 79.8908 13.116 80.3789 13.4797L80.5063 13.3087ZM73.137 9.41985C73.0546 8.65055 73.3022 7.86312 73.7692 7.09076C74.236 6.31854 74.9178 5.56861 75.6908 4.8785C77.237 3.49811 79.1332 2.36976 80.3548 1.7921L80.2636 1.59932C79.0274 2.18389 77.1131 3.32284 75.5488 4.71942C74.7666 5.41779 74.0683 6.18376 73.5867 6.98043C73.1051 7.77696 72.8359 8.61141 72.925 9.44256L73.137 9.41985ZM80.3532 1.79284C81.3612 1.33641 83.5916 0.487681 85.3583 0.487681V0.274435C83.5429 0.274435 81.2769 1.14047 80.2652 1.59858L80.3532 1.79284ZM85.3583 0.487681C85.9586 0.487681 86.4962 0.581779 86.9177 0.808395C87.3353 1.0329 87.6446 1.3902 87.7893 1.93277L87.9953 1.87782C87.8352 1.27721 87.4871 0.872395 87.0187 0.620574C86.5543 0.370867 85.9773 0.274435 85.3583 0.274435V0.487681ZM87.7893 1.9329C88.0285 2.8252 87.8463 3.8139 87.4443 4.74478C87.0428 5.67462 86.4266 6.5357 85.8152 7.16587L85.9683 7.31436C86.5953 6.66799 87.2271 5.78572 87.6401 4.82932C88.0526 3.87396 88.2515 2.83352 87.9953 1.87769L87.7893 1.9329ZM85.8163 7.16472C85.7627 7.21835 85.6778 7.21835 85.6242 7.16472L85.4734 7.31551C85.6103 7.45241 85.8302 7.45241 85.9671 7.31551L85.8163 7.16472ZM85.6242 7.16472C85.5706 7.1111 85.5706 7.02618 85.6242 6.97256L85.4734 6.82177C85.3365 6.95867 85.3365 7.17861 85.4734 7.31551L85.6242 7.16472ZM85.6254 6.97127C86.1855 6.39193 86.7741 5.58156 87.1656 4.70428C87.5564 3.82861 87.7567 2.87274 87.5188 2.01031L87.3132 2.06702C87.5325 2.8622 87.3517 3.76399 86.9709 4.61737C86.5908 5.46914 86.0172 6.25922 85.4721 6.82306L85.6254 6.97127ZM87.5191 2.01175C87.3963 1.54101 87.1074 1.22684 86.718 1.0334C86.3328 0.842076 85.8522 0.769811 85.3392 0.769811V0.983057C85.836 0.983057 86.2795 1.05369 86.6231 1.22438C86.9624 1.39294 87.207 1.65989 87.3128 2.06558L87.5191 2.01175ZM85.3392 0.769811C83.7738 0.769811 81.8333 1.44367 81.0293 1.78824L81.1133 1.98424C81.9098 1.6429 83.818 0.983057 85.3392 0.983057V0.769811ZM81.029 1.7884C79.8109 2.3159 77.9398 3.36878 76.3572 4.6665C75.5657 5.31547 74.8432 6.02827 74.3105 6.77007C73.7784 7.51115 73.4305 8.28861 73.4008 9.06513L73.6139 9.07327C73.6414 8.35413 73.965 7.61688 74.4838 6.89445C75.002 6.17275 75.7096 5.47325 76.4924 4.83139C78.0583 3.54743 79.912 2.5045 81.1137 1.98408L81.029 1.7884ZM73.4008 9.0648C73.3756 9.67521 73.6094 10.1515 73.9975 10.5258C74.382 10.8967 74.9168 11.1667 75.4978 11.3772C76.0797 11.5881 76.7172 11.7423 77.3126 11.8766C77.9114 12.0117 78.4633 12.1259 78.8867 12.2576L78.95 12.054C78.516 11.9189 77.951 11.8021 77.3595 11.6686C76.7648 11.5344 76.1387 11.3826 75.5704 11.1767C75.001 10.9704 74.4986 10.7129 74.1455 10.3723C73.7958 10.0351 73.5914 9.61589 73.6139 9.0736L73.4008 9.0648ZM78.8863 12.2574C79.6043 12.4842 80.3498 12.8215 80.867 13.2832L81.009 13.1242C80.4592 12.6332 79.6805 12.2846 78.9505 12.0541L78.8863 12.2574ZM80.9744 13.3039C82.6502 12.6945 84.3451 12.1042 86.0401 11.5328L85.972 11.3307C84.2756 11.9025 82.5791 12.4935 80.9015 13.1035L80.9744 13.3039ZM86.0537 11.5271C86.0987 11.5046 86.1855 11.5336 86.2084 11.6135L86.4134 11.5549C86.36 11.3681 86.142 11.2446 85.9584 11.3364L86.0537 11.5271ZM86.2097 11.6179C86.2324 11.6858 86.1935 11.7681 86.1292 11.7865L86.1878 11.9916C86.3902 11.9337 86.4656 11.7112 86.4121 11.5505L86.2097 11.6179ZM86.124 11.7881C85.3443 12.0544 83.4173 12.684 81.2621 13.5041L81.3379 13.7035C83.4886 12.885 85.4104 12.2572 86.1929 11.9899L86.124 11.7881ZM81.2151 13.6683C81.5602 14.1225 81.742 14.6832 81.6142 15.395L81.8241 15.4327C81.9631 14.6583 81.7637 14.0378 81.3849 13.5393L81.2151 13.6683ZM81.6143 15.3944C81.5096 15.9589 81.1774 16.5298 80.6888 17.0715C80.2009 17.6124 79.5622 18.1182 78.8554 18.5525C77.4391 19.4226 75.7675 19.9942 74.5171 19.9942V20.2075C75.8198 20.2075 77.5302 19.6169 78.967 18.7341C79.6868 18.2919 80.3425 17.7737 80.8472 17.2143C81.3511 16.6557 81.7096 16.0501 81.824 15.4333L81.6143 15.3944ZM74.5171 19.9942C73.9856 19.9942 73.5428 19.8913 73.2266 19.6768C72.9151 19.4655 72.7159 19.1391 72.6801 18.6639L72.4674 18.6799C72.5078 19.2145 72.7372 19.6025 73.1069 19.8533C73.4718 20.1008 73.9626 20.2075 74.5171 20.2075V19.9942ZM72.9632 18.4687C72.9118 18.9008 73.0465 19.2223 73.3301 19.4296C73.6046 19.6302 74.0033 19.7121 74.46 19.7121V19.4989C74.0211 19.4989 73.6767 19.4188 73.4559 19.2574C73.2441 19.1026 73.1312 18.8621 73.175 18.494L72.9632 18.4687ZM74.46 19.7121C75.6483 19.7121 77.349 19.1406 78.7593 18.2843C79.466 17.8553 80.1056 17.3513 80.5747 16.8054C81.043 16.2604 81.3483 15.6651 81.3684 15.0553L81.1553 15.0483C81.1374 15.5913 80.8639 16.1415 80.4129 16.6664C79.9627 17.1905 79.3424 17.6808 78.6487 18.102C77.2583 18.9462 75.5961 19.4989 74.46 19.4989V19.7121ZM81.3684 15.0556C81.3884 14.4978 81.2283 14.0512 80.9227 13.7047L80.7628 13.8458C81.0287 14.1472 81.1735 14.5389 81.1553 15.048L81.3684 15.0556ZM80.8047 13.6756C79.0027 14.3621 77.0965 15.1693 75.618 15.9923C74.879 16.4036 74.2427 16.8212 73.779 17.2322C73.3191 17.6397 73.0108 18.0566 72.9632 18.4691L73.175 18.4936C73.2132 18.1631 73.4693 17.7916 73.9204 17.3918C74.3676 16.9954 74.9888 16.5866 75.7217 16.1786C77.1868 15.3631 79.0817 14.5602 80.8807 13.8749L80.8047 13.6756ZM80.6121 8.02129L80.5069 8.03882L80.5083 8.04707L80.5109 8.055L80.6121 8.02129ZM80.7836 7.75455L80.7638 7.64977L80.7567 7.65111L80.7498 7.65339L80.7836 7.75455ZM87.8141 6.99243L87.822 7.09876L87.8899 7.09373L87.9139 7.03001L87.8141 6.99243ZM89.0906 3.90585L88.9952 3.85814L88.9936 3.86173L89.0906 3.90585ZM89.3764 3.79153L89.4241 3.69617L89.4173 3.69278L89.4102 3.69038L89.3764 3.79153ZM89.4908 4.09638L89.5888 4.13929L89.5919 4.1301L89.4908 4.09638ZM88.3095 6.95432L88.21 6.91587L88.1496 7.07205L88.3167 7.0607L88.3095 6.95432ZM96.5785 6.97338L96.6262 6.87794L96.6226 6.87631L96.5785 6.97338ZM96.6356 7.65928L96.7023 7.7426L96.7054 7.73986L96.6356 7.65928ZM96.3308 7.62118L96.2454 7.68518L96.2475 7.68778L96.3308 7.62118ZM96.3308 7.35443L96.4161 7.41841L96.5106 7.29242L96.3585 7.25148L96.3308 7.35443ZM88.138 7.39254L88.1308 7.28616L88.0623 7.29081L88.0382 7.35504L88.138 7.39254ZM87.1282 14.8613L87.1184 14.9675L87.1203 14.9676L87.1282 14.8613ZM91.1103 11.7176L91.1916 11.7865L91.1935 11.7842L91.1103 11.7176ZM91.4151 11.6795L91.491 11.6036L91.4817 11.5962L91.4151 11.6795ZM91.4342 12.0034L91.3585 11.9276L91.3522 11.9351L91.4342 12.0034ZM86.8996 15.2614L86.9236 15.1575L86.9229 15.1574L86.8996 15.2614ZM87.6426 7.43065L87.7423 7.46841L87.8019 7.31121L87.6343 7.32435L87.6426 7.43065ZM80.8788 8.19276L80.8964 8.29796L80.8987 8.29752L80.8788 8.19276ZM80.7173 8.00376C80.7079 7.94741 80.7465 7.87929 80.8173 7.8557L80.7498 7.65339C80.592 7.70602 80.4782 7.86653 80.5069 8.03882L80.7173 8.00376ZM80.8033 7.85932C81.8069 7.66996 84.7361 7.32734 87.822 7.09876L87.8062 6.8861C84.719 7.11478 81.7798 7.45807 80.7638 7.64977L80.8033 7.85932ZM87.9139 7.03001C88.4653 5.56588 88.9978 4.36785 89.1877 3.94997L88.9936 3.86173C88.8025 4.28218 88.268 5.48482 87.7143 6.95485L87.9139 7.03001ZM89.186 3.95354C89.2035 3.91858 89.2267 3.90006 89.2501 3.89117C89.2742 3.88198 89.3058 3.88038 89.3427 3.89269L89.4102 3.69038C89.3328 3.66458 89.2501 3.66298 89.1742 3.6919C89.0974 3.72112 89.035 3.77881 88.9953 3.85817L89.186 3.95354ZM89.3288 3.8869C89.3862 3.91562 89.4145 3.988 89.3896 4.06266L89.5919 4.1301C89.6432 3.97613 89.5953 3.78177 89.4241 3.69617L89.3288 3.8869ZM89.3931 4.05365C89.2596 4.3587 88.7635 5.48461 88.21 6.91587L88.4089 6.99278C88.9606 5.5661 89.4552 4.44376 89.5884 4.13912L89.3931 4.05365ZM88.3167 7.0607C90.2793 6.92732 92.2384 6.81326 93.7967 6.81326V6.60001C92.2303 6.60001 90.2646 6.71458 88.3022 6.84795L88.3167 7.0607ZM93.7967 6.81326C94.462 6.81326 95.0491 6.83228 95.521 6.87475C95.9971 6.9176 96.3428 6.98339 96.5343 7.07044L96.6226 6.87631C96.3949 6.77284 96.0167 6.70525 95.5401 6.66236C95.0593 6.61909 94.4652 6.60001 93.7967 6.60001V6.81326ZM96.5308 7.06874C96.6853 7.14599 96.7325 7.22893 96.7364 7.29414C96.7406 7.36469 96.6982 7.46392 96.5658 7.57871L96.7054 7.73986C96.8588 7.60695 96.9593 7.44897 96.9492 7.28136C96.9389 7.10841 96.8146 6.97224 96.6261 6.87801L96.5308 7.06874ZM96.569 7.57602C96.5227 7.61308 96.4559 7.60687 96.414 7.55457L96.2475 7.68778C96.3581 7.82601 96.558 7.85791 96.7022 7.74254L96.569 7.57602ZM96.4161 7.5572C96.3873 7.5189 96.3873 7.45671 96.4161 7.41841L96.2455 7.29046C96.1599 7.40458 96.1599 7.57103 96.2455 7.68515L96.4161 7.5572ZM96.3585 7.25148C95.8474 7.11388 94.8809 7.05728 93.6634 7.05728V7.27053C94.8846 7.27053 95.8234 7.32825 96.303 7.45739L96.3585 7.25148ZM93.6634 7.05728C92.0975 7.05728 90.0942 7.15273 88.1308 7.28616L88.1452 7.49892C90.1067 7.36561 92.1045 7.27053 93.6634 7.27053V7.05728ZM88.0382 7.35504C87.4471 8.92805 86.83 10.7687 86.5425 12.2353C86.399 12.9668 86.3353 13.616 86.4034 14.0951C86.4375 14.335 86.5059 14.5419 86.6225 14.6955C86.7419 14.8528 86.9076 14.9481 87.1184 14.9675L87.138 14.7551C86.9868 14.7412 86.8756 14.6762 86.7923 14.5665C86.7062 14.4531 86.6459 14.2861 86.6145 14.0651C86.5516 13.6226 86.6094 13.0023 86.7517 12.2763C87.0358 10.8278 87.6476 9.00077 88.2378 7.43004L88.0382 7.35504ZM87.1203 14.9676C87.4717 14.9939 87.8568 14.8511 88.2387 14.6253C88.623 14.3981 89.0175 14.0787 89.3917 13.732C90.1404 13.0386 90.8209 12.2237 91.1916 11.7865L91.0289 11.6486C90.6565 12.0879 89.9843 12.8925 89.2468 13.5756C88.878 13.9172 88.4961 14.2254 88.1302 14.4417C87.7619 14.6595 87.4229 14.7764 87.1361 14.755L87.1203 14.9676ZM91.1935 11.7842C91.2354 11.7319 91.3022 11.7257 91.3485 11.7627L91.4817 11.5962C91.3375 11.4808 91.1376 11.5127 91.027 11.651L91.1935 11.7842ZM91.3397 11.7548C91.3728 11.7879 91.3875 11.8225 91.3898 11.8503C91.3919 11.8757 91.3845 11.9022 91.3588 11.928L91.5096 12.0787C91.579 12.0093 91.6097 11.9214 91.6023 11.8325C91.5951 11.746 91.5527 11.6663 91.4905 11.6041L91.3397 11.7548ZM91.3522 11.9351C90.9225 12.4508 90.1847 13.3492 89.3608 14.0739C88.9489 14.4362 88.5195 14.7515 88.1003 14.9537C87.6804 15.1563 87.2813 15.2404 86.9236 15.1575L86.8755 15.3653C87.299 15.4634 87.7501 15.3594 88.193 15.1458C88.6365 14.9318 89.0824 14.6028 89.5016 14.234C90.3401 13.4964 91.0884 12.5848 91.5161 12.0716L91.3522 11.9351ZM86.9229 15.1574C86.5555 15.0748 86.3336 14.7862 86.2332 14.308C86.1321 13.8269 86.1612 13.1774 86.2832 12.4277C86.5267 10.9311 87.1332 9.07678 87.7423 7.46841L87.5429 7.39289C86.9326 9.00446 86.3198 10.875 86.0727 12.3935C85.9494 13.1514 85.9153 13.832 86.0245 14.3518C86.1342 14.8745 86.3957 15.2575 86.8762 15.3654L86.9229 15.1574ZM87.6343 7.32435C84.7185 7.55304 81.9701 7.87729 80.859 8.08801L80.8987 8.29752C81.9978 8.08908 84.7365 7.76552 87.651 7.53694L87.6343 7.32435ZM80.8613 8.08759C80.805 8.09698 80.7368 8.05834 80.7132 7.98757L80.5109 8.055C80.5636 8.21287 80.7241 8.32665 80.8964 8.29794L80.8613 8.08759ZM91.4271 14.6136L91.4091 14.7187L91.4271 14.6136ZM91.8653 10.8602L91.7738 10.8053L91.772 10.8087L91.8653 10.8602ZM92.1511 10.784L92.0961 10.8757L92.1034 10.8793L92.1511 10.784ZM92.2273 11.0888L92.1383 11.0294L92.1336 11.038L92.2273 11.0888ZM91.4271 14.1373L91.501 14.0604L91.5009 14.0603L91.4271 14.1373ZM94.5709 11.1079L94.4952 11.0322L94.4895 11.039L94.5709 11.1079ZM94.971 10.7268V10.8341L94.9827 10.8328L94.971 10.7268ZM94.971 11.508L95.069 11.5512L95.0721 11.5417L94.971 11.508ZM96.3618 13.3942L96.301 13.3066L96.2987 13.3083L96.3618 13.3942ZM98.1909 11.7366L98.2668 11.8125L98.2742 11.8032L98.1909 11.7366ZM98.4958 11.7176L98.579 11.651L98.5716 11.6417L98.5624 11.6343L98.4958 11.7176ZM98.4958 12.0415L98.4203 11.966L98.4184 11.9681L98.4958 12.0415ZM94.7804 14.4421L94.7552 14.5457L94.7569 14.5461L94.7804 14.4421ZM94.1326 12.5559L94.0287 12.5319L94.0285 12.5328L94.1326 12.5559ZM94.0183 12.4606L94.1003 12.5292L94.1045 12.5233L94.0183 12.4606ZM91.4451 14.5085C91.3006 14.4837 91.2014 14.4237 91.1324 14.3411C91.062 14.2566 91.0164 14.1404 90.9956 13.9934C90.9536 13.6967 91.0163 13.3041 91.1344 12.8874C91.3694 12.0578 91.8081 11.1847 91.9587 10.9117L91.772 10.8087C91.6177 11.0882 91.1705 11.9775 90.9292 12.8293C90.8091 13.2533 90.736 13.6812 90.7845 14.0233C90.8089 14.1958 90.8652 14.3536 90.9686 14.4776C91.0735 14.6034 91.2202 14.6863 91.4091 14.7187L91.4451 14.5085ZM91.9568 10.915C91.9858 10.8666 92.0551 10.8507 92.0963 10.8754L92.206 10.6925C92.0566 10.6029 91.8591 10.6633 91.7739 10.8053L91.9568 10.915ZM92.1034 10.8793C92.1596 10.9074 92.1798 10.9679 92.1386 11.0297L92.3161 11.148C92.4273 10.9811 92.3713 10.7749 92.1988 10.6886L92.1034 10.8793ZM92.1336 11.038C92.0074 11.271 91.6906 11.9288 91.4622 12.5851C91.3481 12.9129 91.2542 13.2455 91.2186 13.527C91.2008 13.6677 91.1969 13.8003 91.2147 13.9155C91.2323 14.03 91.273 14.1373 91.3533 14.2143L91.5009 14.0603C91.4669 14.0277 91.4391 13.9718 91.4254 13.883C91.4118 13.7947 91.4137 13.6837 91.4302 13.5538C91.463 13.294 91.5514 12.9777 91.6636 12.6552C91.8877 12.0112 92.1996 11.3639 92.3211 11.1396L92.1336 11.038ZM91.3533 14.2142C91.4491 14.3062 91.5736 14.3142 91.6925 14.2819C91.8086 14.2504 91.935 14.1775 92.0646 14.082C92.3254 13.8901 92.6309 13.5832 92.9425 13.2369C93.5642 12.5462 94.2397 11.6643 94.6522 11.1767L94.4895 11.039C94.0637 11.5422 93.4055 12.4037 92.784 13.0943C92.474 13.4387 92.1805 13.7319 91.9382 13.9103C91.8162 14.0001 91.715 14.0548 91.6366 14.0761C91.561 14.0967 91.5242 14.0827 91.501 14.0604L91.3533 14.2142ZM94.6462 11.1833C94.6644 11.1651 94.6946 11.1292 94.7252 11.0934C94.758 11.055 94.7961 11.0105 94.8351 10.968C94.8746 10.9251 94.9125 10.8869 94.9446 10.8602C94.9606 10.8468 94.9728 10.8384 94.9809 10.8338C94.9912 10.8281 94.9863 10.8334 94.971 10.8334V10.6202C94.9319 10.6202 94.8983 10.6357 94.8766 10.6478C94.8528 10.6612 94.8294 10.6786 94.808 10.6964C94.7651 10.7322 94.7196 10.7786 94.6781 10.8238C94.6361 10.8694 94.5957 10.9166 94.563 10.955C94.528 10.996 94.5058 11.0221 94.4955 11.0325L94.6462 11.1833ZM94.9827 10.8328C95.0362 10.8268 95.0637 10.8335 95.0758 10.8389C95.0844 10.8428 95.088 10.8468 95.0912 10.8552C95.0958 10.8671 95.0993 10.8887 95.0959 10.9235C95.0926 10.9576 95.0835 10.9978 95.0694 11.0423C95.0411 11.1315 94.9966 11.2265 94.9564 11.3052C94.9365 11.3443 94.9181 11.3782 94.9036 11.4052C94.8965 11.4184 94.89 11.4305 94.8849 11.4404C94.8812 11.4476 94.8741 11.4615 94.8698 11.4743L95.0721 11.5417C95.0702 11.5473 95.0692 11.5484 95.0746 11.5379C95.0786 11.5301 95.0842 11.5197 95.0914 11.5061C95.1057 11.4796 95.1251 11.4436 95.1463 11.4023C95.1882 11.3202 95.239 11.2128 95.2727 11.1067C95.2895 11.0536 95.303 10.998 95.3082 10.944C95.3133 10.8909 95.3111 10.8325 95.2901 10.7782C95.2677 10.7205 95.2258 10.6725 95.1631 10.6443C95.1039 10.6178 95.0343 10.6125 94.9592 10.6208L94.9827 10.8328ZM94.8734 11.465C94.6758 11.9132 94.5276 12.3592 94.4513 12.7523C94.3758 13.1412 94.3673 13.4948 94.4669 13.7476C94.5178 13.8769 94.5987 13.9841 94.7164 14.0519C94.8338 14.1195 94.9764 14.1416 95.1393 14.1217C95.4599 14.0825 95.8832 13.8781 96.4249 13.4802L96.2987 13.3083C95.764 13.7011 95.3775 13.8777 95.1134 13.91C94.984 13.9258 94.8905 13.9061 94.8229 13.8672C94.7556 13.8284 94.7025 13.7641 94.6653 13.6695C94.5886 13.4747 94.5873 13.1709 94.6606 12.7929C94.7332 12.4192 94.8756 11.9887 95.0685 11.551L94.8734 11.465ZM96.4226 13.4818C97.1184 12.9986 97.6793 12.399 98.2663 11.812L98.1155 11.6612C97.5212 12.2555 96.977 12.8372 96.301 13.3066L96.4226 13.4818ZM98.2742 11.8032C98.3054 11.7641 98.369 11.7527 98.4291 11.8008L98.5624 11.6343C98.432 11.53 98.2288 11.5186 98.1077 11.67L98.2742 11.8032ZM98.4125 11.7842C98.4669 11.8522 98.4649 11.9216 98.4204 11.9661L98.5711 12.1169C98.7172 11.9708 98.677 11.7734 98.579 11.651L98.4125 11.7842ZM98.4184 11.9681C98.0655 12.34 97.4371 13.0013 96.7511 13.5364C96.4081 13.804 96.0545 14.037 95.717 14.1866C95.378 14.3368 95.0673 14.3976 94.8039 14.3381L94.7569 14.5461C95.0842 14.62 95.4451 14.5403 95.8034 14.3815C96.1631 14.2221 96.5323 13.9776 96.8823 13.7045C97.5825 13.1584 98.221 12.486 98.5731 12.1148L98.4184 11.9681ZM94.8057 14.3385C94.4588 14.2539 94.2752 14.0307 94.1954 13.7224C94.1135 13.4058 94.1429 13.0014 94.2367 12.579L94.0285 12.5328C93.9319 12.9678 93.8946 13.4112 93.9889 13.7758C94.0854 14.1486 94.3209 14.4398 94.7552 14.5457L94.8057 14.3385ZM94.2365 12.5799C94.2511 12.5168 94.2618 12.4617 94.2664 12.4182C94.2686 12.3966 94.2698 12.3739 94.268 12.3526C94.2666 12.3359 94.262 12.2982 94.2343 12.2666C94.218 12.2479 94.1951 12.2332 94.1673 12.2277C94.1412 12.2226 94.1185 12.227 94.1027 12.2323C94.0738 12.2419 94.0512 12.2603 94.0369 12.2733C94.0059 12.3014 93.9708 12.3447 93.9321 12.3979L94.1045 12.5233C94.142 12.4718 94.1665 12.4437 94.1801 12.4312C94.1831 12.4286 94.1842 12.4279 94.1835 12.4284C94.1831 12.4286 94.1786 12.4317 94.1704 12.4345C94.1622 12.4372 94.1461 12.4409 94.1259 12.4369C94.1039 12.4326 94.086 12.4209 94.0738 12.407C94.063 12.3946 94.0587 12.3829 94.0572 12.378C94.0556 12.3727 94.0555 12.3698 94.0555 12.3707C94.0557 12.3729 94.0559 12.3805 94.0543 12.3959C94.0511 12.4262 94.0428 12.4711 94.0287 12.5319L94.2365 12.5799ZM93.9365 12.3922C93.4976 12.917 93.0208 13.4786 92.5716 13.8947C92.3471 14.1029 92.1333 14.2709 91.9382 14.3797C91.7412 14.4894 91.5768 14.5311 91.4451 14.5085L91.4091 14.7187C91.6109 14.7533 91.8275 14.6854 92.042 14.5659C92.2583 14.4454 92.4863 14.2646 92.7166 14.0512C93.1773 13.6243 93.6626 13.0522 94.1001 12.529L93.9365 12.3922ZM98.3851 14.6708L98.382 14.5642L98.3819 14.5642L98.3851 14.6708ZM100.176 10.5363L100.181 10.6429L100.186 10.6425L100.176 10.5363ZM101.053 10.9173L100.963 10.975L101.056 11.1197L101.144 10.972L101.053 10.9173ZM104.901 4.00112L104.989 4.06201L104.993 4.05569L104.997 4.0488L104.901 4.00112ZM104.939 3.92491L104.864 3.84951L104.852 3.86175L104.844 3.87722L104.939 3.92491ZM105.092 3.81059V3.91721H105.107L105.121 3.91311L105.092 3.81059ZM105.301 4.13449L105.198 4.10643L105.162 4.24111H105.301V4.13449ZM105.32 4.13449L105.396 4.20988L105.578 4.02786H105.32V4.13449ZM105.301 4.17259L105.402 4.20903L105.408 4.19138V4.17259H105.301ZM105.092 4.61081L104.999 4.55685L104.995 4.56591L105.092 4.61081ZM100.005 19.4721L99.9292 19.5475L100.005 19.4721ZM100.443 19.7388H100.549V19.73L100.548 19.7213L100.443 19.7388ZM99.795 19.8722L99.7376 19.9621L99.7385 19.9626L99.795 19.8722ZM102.215 9.94563L102.313 9.98722L102.314 9.98523L102.215 9.94563ZM102.158 9.88848L102.065 9.83505L102.065 9.83558L102.158 9.88848ZM101.243 11.4508L101.152 11.3949L101.136 11.4206V11.4508H101.243ZM101.11 11.6604L101.062 11.565L101.035 11.5784L101.019 11.6036L101.11 11.6604ZM100.1 10.9745L100.079 10.8699L100.077 10.8704L100.1 10.9745ZM98.5185 14.1944L98.4708 14.0991L98.5185 14.1944ZM100.786 11.3746L100.876 11.4309L100.902 11.3903L100.888 11.3445L100.786 11.3746ZM98.3819 14.5642C98.1678 14.5707 98.0252 14.5174 97.9316 14.4333C97.8373 14.3486 97.7784 14.2197 97.7581 14.0471C97.7169 13.6975 97.8393 13.2078 98.0769 12.6986C98.3129 12.1927 98.6551 11.6833 99.0345 11.2972C99.4174 10.9076 99.8218 10.6599 100.181 10.6428L100.171 10.4298C99.7301 10.4508 99.2772 10.746 98.8824 11.1477C98.4842 11.553 98.1287 12.0831 97.8836 12.6085C97.6401 13.1305 97.4982 13.6638 97.5463 14.0721C97.5706 14.2785 97.6448 14.4623 97.7891 14.592C97.9341 14.7223 98.1357 14.7851 98.3884 14.7773L98.3819 14.5642ZM100.186 10.6425C100.569 10.6076 100.815 10.745 100.963 10.975L101.142 10.8597C100.947 10.5562 100.621 10.3888 100.166 10.4301L100.186 10.6425ZM101.144 10.972C101.936 9.6453 102.747 8.13314 103.435 6.84499C104.126 5.55224 104.689 4.49354 104.989 4.06201L104.814 3.94023C104.504 4.38512 103.933 5.46036 103.247 6.74452C102.559 8.03327 101.75 9.54101 100.961 10.8627L101.144 10.972ZM104.997 4.0488L105.035 3.97259L104.844 3.87722L104.806 3.95343L104.997 4.0488ZM105.015 4.0003C105.055 3.96035 105.078 3.93689 105.096 3.92243C105.115 3.90746 105.11 3.91721 105.092 3.91721V3.70396C105.035 3.70396 104.992 3.73277 104.963 3.75591C104.934 3.77955 104.9 3.81325 104.864 3.84951L105.015 4.0003ZM105.121 3.91311C105.179 3.89656 105.207 3.89948 105.216 3.90212C105.219 3.90288 105.218 3.90139 105.219 3.90559C105.223 3.91536 105.227 3.9371 105.224 3.97583C105.221 4.01302 105.212 4.05732 105.198 4.10643L105.404 4.16254C105.419 4.10687 105.432 4.04876 105.436 3.99365C105.441 3.9401 105.439 3.87967 105.417 3.82514C105.392 3.76504 105.345 3.71711 105.274 3.69702C105.21 3.67883 105.138 3.68651 105.062 3.70807L105.121 3.91311ZM105.301 4.24111H105.32V4.02786H105.301V4.24111ZM105.245 4.05909C105.241 4.06305 105.235 4.06892 105.23 4.07447C105.225 4.08025 105.216 4.09092 105.208 4.10586C105.192 4.13782 105.195 4.17116 105.195 4.17259H105.408C105.408 4.16991 105.408 4.16898 105.408 4.1684C105.408 4.16789 105.408 4.1694 105.408 4.17189C105.407 4.17832 105.405 4.18923 105.399 4.20122C105.396 4.20647 105.394 4.21045 105.392 4.21306C105.39 4.21552 105.389 4.217 105.389 4.21713C105.389 4.21726 105.389 4.21684 105.39 4.21544C105.392 4.21404 105.393 4.21237 105.396 4.20988L105.245 4.05909ZM105.201 4.13616C105.165 4.23485 105.115 4.33987 105.073 4.42153C105.052 4.46205 105.034 4.49619 105.021 4.52013C105.014 4.53208 105.009 4.54146 105.005 4.54779C105.003 4.55095 105.002 4.55335 105.001 4.55492C105 4.5557 105 4.55628 105 4.55665C105 4.55683 105 4.55696 105 4.55703C105 4.55707 105 4.55709 105 4.5571C105 4.5571 105 4.55711 105 4.5571C105 4.5571 105 4.5571 105 4.5571C105 4.55709 105 4.55709 105.092 4.61081C105.184 4.66454 105.184 4.66453 105.184 4.66452C105.184 4.66452 105.184 4.66451 105.184 4.6645C105.184 4.66448 105.184 4.66446 105.184 4.66444C105.184 4.66439 105.184 4.66433 105.184 4.66426C105.184 4.66411 105.184 4.66391 105.184 4.66365C105.185 4.66314 105.185 4.66241 105.186 4.66147C105.187 4.65959 105.188 4.65686 105.19 4.65337C105.194 4.64637 105.2 4.63625 105.207 4.6235C105.221 4.59801 105.241 4.56189 105.263 4.51906C105.307 4.434 105.361 4.31992 105.402 4.20903L105.201 4.13616ZM104.995 4.56591C104.623 5.36621 103.041 8.77434 101.706 12.1379C101.039 13.8192 100.432 15.4925 100.07 16.8246C99.8886 17.4902 99.7672 18.0751 99.7309 18.5352C99.7127 18.7652 99.7154 18.9683 99.7444 19.1368C99.7732 19.304 99.8299 19.4482 99.9292 19.5475L100.08 19.3967C100.025 19.3412 99.9797 19.2463 99.9546 19.1006C99.9297 18.9561 99.926 18.7724 99.9434 18.552C99.9783 18.1114 100.096 17.5413 100.275 16.8806C100.635 15.5602 101.238 13.8957 101.904 12.2165C103.237 8.85916 104.817 5.45586 105.188 4.65571L104.995 4.56591ZM99.9292 19.5475C100.021 19.639 100.121 19.6359 100.195 19.6359V19.4226C100.154 19.4226 100.134 19.4221 100.117 19.4182C100.105 19.4155 100.094 19.4109 100.08 19.3967L99.9292 19.5475ZM100.195 19.6359C100.272 19.6359 100.326 19.689 100.338 19.7564L100.548 19.7213C100.521 19.56 100.385 19.4226 100.195 19.4226V19.6359ZM100.336 19.7388C100.336 19.8195 100.283 19.8609 100.233 19.8609V20.0741C100.412 20.0741 100.549 19.9249 100.549 19.7388H100.336ZM100.233 19.8609C100.063 19.8609 99.976 19.8596 99.8515 19.7818L99.7385 19.9626C99.9189 20.0754 100.061 20.0741 100.233 20.0741V19.8609ZM99.8525 19.7824C99.7368 19.7084 99.6492 19.577 99.5947 19.3777C99.5401 19.178 99.5215 18.9196 99.5374 18.608C99.5693 17.9849 99.7376 17.173 100 16.2455C100.524 14.3921 101.418 12.1012 102.313 9.98721L102.117 9.90406C101.221 12.0199 100.323 14.3207 99.7948 16.1874C99.531 17.12 99.3575 17.9501 99.3245 18.5971C99.3079 18.9204 99.3261 19.204 99.389 19.434C99.452 19.6643 99.5627 19.8502 99.7376 19.962L99.8525 19.7824ZM102.314 9.98523C102.342 9.91338 102.367 9.84966 102.384 9.80028C102.393 9.77574 102.4 9.75316 102.405 9.73412C102.408 9.72464 102.41 9.71457 102.412 9.70471C102.413 9.69672 102.415 9.68108 102.414 9.66352C102.413 9.65492 102.41 9.63753 102.4 9.61878C102.388 9.59707 102.364 9.57325 102.328 9.56508C102.297 9.55792 102.271 9.5666 102.259 9.57196C102.246 9.57767 102.236 9.58475 102.231 9.58916C102.212 9.60437 102.196 9.62641 102.184 9.64274C102.157 9.68107 102.118 9.74437 102.065 9.83505L102.25 9.9419C102.302 9.85158 102.337 9.7958 102.358 9.76625C102.363 9.7591 102.367 9.75456 102.369 9.75199C102.372 9.7486 102.37 9.75098 102.365 9.75508C102.362 9.75708 102.356 9.76245 102.345 9.76716C102.335 9.7715 102.311 9.77987 102.281 9.77308C102.247 9.76527 102.225 9.74249 102.214 9.72246C102.204 9.70541 102.202 9.69036 102.202 9.68474C102.2 9.67313 102.202 9.66598 102.202 9.66884C102.201 9.66982 102.201 9.67297 102.199 9.67889C102.196 9.69066 102.191 9.70768 102.183 9.73017C102.167 9.77487 102.144 9.83499 102.116 9.90604L102.314 9.98523ZM102.065 9.83558C101.76 10.3694 101.456 10.9013 101.152 11.3949L101.334 11.5067C101.64 11.0096 101.946 10.4745 102.25 9.94138L102.065 9.83558ZM101.136 11.4508C101.136 11.4643 101.131 11.4878 101.115 11.5134C101.099 11.5386 101.079 11.5565 101.062 11.565L101.157 11.7558C101.217 11.7261 101.264 11.6774 101.295 11.6264C101.327 11.5758 101.35 11.5136 101.35 11.4508H101.136ZM101.019 11.6036C100.487 12.45 99.9711 13.1924 99.5097 13.7245C99.2788 13.9906 99.0642 14.2011 98.8704 14.3453C98.6745 14.4911 98.5115 14.5604 98.382 14.5642L98.3882 14.7773C98.5827 14.7716 98.7888 14.6718 98.9977 14.5164C99.2088 14.3593 99.4348 14.1363 99.6708 13.8642C100.143 13.3198 100.665 12.5666 101.2 11.7172L101.019 11.6036ZM100.077 10.8704C99.7253 10.9491 99.3889 11.2091 99.0974 11.5362C98.8038 11.8655 98.545 12.2749 98.3512 12.6736C98.1579 13.071 98.0251 13.466 97.9898 13.7673C97.9724 13.9162 97.977 14.0559 98.0217 14.1634C98.0448 14.219 98.08 14.2692 98.1313 14.3052C98.183 14.3416 98.2438 14.3582 98.3089 14.3582V14.145C98.2811 14.145 98.2646 14.1383 98.2538 14.1307C98.2425 14.1227 98.2298 14.1084 98.2186 14.0816C98.1948 14.0244 98.1857 13.9282 98.2016 13.7921C98.2331 13.5237 98.3551 13.153 98.5429 12.7669C98.7301 12.382 98.9786 11.9899 99.2566 11.6781C99.5367 11.3638 99.8362 11.1428 100.123 11.0785L100.077 10.8704ZM98.3089 14.3582C98.3866 14.3582 98.4791 14.3333 98.5662 14.2898L98.4708 14.0991C98.4054 14.1318 98.3456 14.145 98.3089 14.145V14.3582ZM98.5662 14.2898C98.8755 14.1351 99.236 13.7648 99.6218 13.2718C100.011 12.7744 100.437 12.1372 100.876 11.4309L100.695 11.3183C100.258 12.0219 99.8362 12.6518 99.4538 13.1404C99.068 13.6334 98.733 13.968 98.4708 14.0991L98.5662 14.2898ZM100.888 11.3445C100.836 11.1677 100.748 11.0214 100.606 10.9338C100.464 10.8459 100.286 10.8286 100.079 10.8699L100.121 11.079C100.295 11.0442 100.413 11.065 100.494 11.1152C100.576 11.1657 100.64 11.2577 100.683 11.4047L100.888 11.3445ZM104.426 14.4421L104.4 14.5457L104.401 14.5459L104.426 14.4421ZM104.54 10.6696L104.445 10.622L104.444 10.624L104.54 10.6696ZM104.845 10.5744L104.893 10.479L104.845 10.5744ZM104.94 10.8792L104.845 10.8315L104.844 10.8324L104.94 10.8792ZM107.97 11.7366L108.045 11.8125L108.053 11.8032L107.97 11.7366ZM108.274 11.7176L108.35 11.6422L108.274 11.7176ZM108.293 12.0415L108.37 12.1163L108.377 12.1081L108.293 12.0415ZM105.035 9.77416L105.069 9.67301L105.061 9.67036L105.053 9.66899L105.035 9.77416ZM104.864 9.50742L104.763 9.47276L104.76 9.48114L104.759 9.48989L104.864 9.50742ZM105.55 8.00223L105.643 8.05378L105.645 8.04992L105.55 8.00223ZM105.855 7.92602L105.91 7.83432L105.902 7.83066L105.855 7.92602ZM105.931 8.23087L106.023 8.28425L106.026 8.27855L105.931 8.23087ZM105.302 9.62173L105.201 9.58698L105.201 9.58802L105.302 9.62173ZM104.451 14.3386C104.148 14.2639 103.985 14.0653 103.912 13.783C103.837 13.493 103.859 13.1188 103.937 12.7194C104.094 11.9231 104.466 11.0754 104.636 10.7153L104.444 10.624C104.271 10.9879 103.89 11.855 103.728 12.6782C103.647 13.0885 103.618 13.5003 103.705 13.8366C103.795 14.1807 104.008 14.4489 104.4 14.5457L104.451 14.3386ZM104.635 10.7173C104.664 10.6603 104.731 10.6365 104.797 10.6697L104.893 10.479C104.73 10.3979 104.531 10.4503 104.445 10.622L104.635 10.7173ZM104.797 10.6697C104.854 10.6982 104.878 10.7651 104.845 10.8315L105.036 10.9269C105.117 10.7647 105.064 10.5648 104.893 10.479L104.797 10.6697ZM104.844 10.8324C104.442 11.656 104.16 12.4595 104.091 13.063C104.057 13.363 104.074 13.6292 104.169 13.825C104.218 13.9249 104.288 14.0075 104.382 14.0645C104.475 14.1213 104.586 14.1486 104.712 14.1486V13.9354C104.618 13.9354 104.547 13.9151 104.492 13.8822C104.438 13.8494 104.394 13.8001 104.361 13.7315C104.292 13.5903 104.271 13.373 104.303 13.0871C104.368 12.5189 104.638 11.741 105.036 10.926L104.844 10.8324ZM104.712 14.1486C104.977 14.1486 105.276 14.0372 105.577 13.8717C105.881 13.705 106.2 13.4769 106.507 13.2296C107.122 12.7349 107.702 12.1546 108.045 11.812L107.894 11.6612C107.551 12.0045 106.978 12.577 106.374 13.0635C106.071 13.3067 105.764 13.5264 105.475 13.6848C105.184 13.8444 104.923 13.9354 104.712 13.9354V14.1486ZM108.053 11.8032C108.069 11.7835 108.095 11.7706 108.126 11.7693C108.159 11.7679 108.186 11.7794 108.199 11.793L108.35 11.6422C108.287 11.5795 108.199 11.5528 108.118 11.5563C108.035 11.5597 107.947 11.5944 107.886 11.67L108.053 11.8032ZM108.199 11.793C108.254 11.848 108.254 11.92 108.21 11.9749L108.377 12.1081C108.485 11.9724 108.485 11.7777 108.35 11.6422L108.199 11.793ZM108.217 11.967C107.846 12.3478 107.184 13.0141 106.467 13.5493C106.109 13.817 105.74 14.0491 105.391 14.1965C105.039 14.3446 104.719 14.4023 104.45 14.3384L104.401 14.5459C104.733 14.6248 105.103 14.5491 105.473 14.393C105.845 14.2362 106.229 13.9932 106.595 13.7202C107.326 13.1741 107.998 12.4972 108.37 12.1159L108.217 11.967ZM105.053 9.66899C105.033 9.66564 105.009 9.65076 104.99 9.62039C104.971 9.58989 104.964 9.55389 104.969 9.52495L104.759 9.48989C104.745 9.57527 104.766 9.66311 104.809 9.73263C104.852 9.8023 104.924 9.86362 105.018 9.87933L105.053 9.66899ZM104.965 9.54208C105.172 8.94024 105.34 8.60318 105.643 8.05374L105.457 7.95073C105.15 8.50636 104.975 8.8552 104.763 9.47276L104.965 9.54208ZM105.645 8.04992C105.659 8.02313 105.679 8.00943 105.704 8.00401C105.731 7.99806 105.768 8.0019 105.807 8.02139L105.902 7.83066C105.756 7.75735 105.547 7.76928 105.454 7.95455L105.645 8.04992ZM105.8 8.01745C105.843 8.04318 105.87 8.11374 105.836 8.18319L106.026 8.27855C106.106 8.11936 106.057 7.92318 105.91 7.83459L105.8 8.01745ZM105.839 8.17759C105.549 8.67938 105.394 9.02861 105.201 9.58698L105.403 9.65649C105.591 9.10979 105.741 8.77311 106.023 8.28415L105.839 8.17759ZM105.201 9.58802C105.176 9.66166 105.114 9.6878 105.069 9.67301L105.002 9.87531C105.186 9.93673 105.352 9.81044 105.403 9.65545L105.201 9.58802ZM110.729 13.3752L110.73 13.2686L110.666 13.2675L110.635 13.3234L110.729 13.3752ZM107.794 13.0513L107.69 13.0275L107.69 13.0276L107.794 13.0513ZM109.433 10.8792L109.459 10.9827L109.494 10.9738L109.517 10.9451L109.433 10.8792ZM110.271 10.441V10.5477L110.275 10.5476L110.271 10.441ZM111.091 12.4797L111.191 12.5172L111.193 12.5103L111.091 12.4797ZM110.919 12.9369L110.824 12.8893L110.741 13.0547L110.926 13.0434L110.919 12.9369ZM113.282 11.7938L113.354 11.8724L113.357 11.8692L113.282 11.7938ZM113.586 11.7938L113.52 11.877L113.586 11.7938ZM113.586 12.0986L113.52 12.0151L113.514 12.0205L113.586 12.0986ZM109.109 11.527L109.212 11.5542L109.309 11.1848L109.035 11.4504L109.109 11.527ZM110.195 13.318L110.285 13.3745L110.365 13.2466L110.218 13.2139L110.195 13.318ZM109.7 11.2793L109.713 11.1735L109.645 11.1651L109.609 11.2231L109.7 11.2793ZM110.424 12.9179L110.407 13.0232L110.484 13.0354L110.519 12.9656L110.424 12.9179ZM110.424 10.8983L110.376 10.9938L110.382 10.9964L110.424 10.8983ZM110.043 10.9364L109.99 10.8438L109.817 10.9427L109.995 11.0318L110.043 10.9364ZM110.405 11.6985L110.51 11.7162L110.511 11.7038L110.405 11.6985ZM110.157 11.889L110.139 11.9942L110.157 11.889ZM109.966 11.6413L110.072 11.6565L110.073 11.6502L109.966 11.6413ZM110.635 13.3234C110.074 14.3338 109.303 14.8118 108.709 14.8118V15.0251C109.41 15.0251 110.24 14.4743 110.822 13.4269L110.635 13.3234ZM108.709 14.8118C108.39 14.8118 108.128 14.676 107.973 14.4037C107.815 14.126 107.759 13.6896 107.898 13.0749L107.69 13.0276C107.544 13.6704 107.593 14.1676 107.787 14.5092C107.985 14.856 108.323 15.0251 108.709 15.0251V14.8118ZM107.898 13.075C108.198 11.7658 108.901 11.1222 109.459 10.9827L109.407 10.7758C108.746 10.9411 108.001 11.6693 107.69 13.0275L107.898 13.075ZM109.517 10.9451C109.711 10.6983 109.968 10.5476 110.271 10.5476V10.3344C109.889 10.3344 109.574 10.5267 109.349 10.8134L109.517 10.9451ZM110.275 10.5476C110.508 10.5389 110.674 10.6062 110.794 10.7152C110.916 10.8264 111 10.9895 111.049 11.1861C111.148 11.5815 111.099 12.0805 110.988 12.449L111.193 12.5103C111.311 12.1168 111.367 11.5773 111.256 11.1344C111.2 10.9119 111.101 10.7058 110.937 10.5574C110.771 10.4068 110.549 10.324 110.267 10.3345L110.275 10.5476ZM110.991 12.4422C110.928 12.61 110.897 12.7426 110.824 12.8893L111.014 12.9846C111.093 12.8265 111.139 12.6542 111.19 12.5171L110.991 12.4422ZM110.926 13.0434C111.894 12.9841 112.659 12.5093 113.354 11.8724L113.21 11.7152C112.533 12.3358 111.812 12.7755 110.913 12.8305L110.926 13.0434ZM113.357 11.8692C113.388 11.8386 113.458 11.828 113.52 11.877L113.653 11.7105C113.524 11.6072 113.328 11.5965 113.206 11.7184L113.357 11.8692ZM113.52 11.877C113.562 11.9106 113.562 11.9818 113.52 12.0154L113.653 12.1819C113.802 12.063 113.802 11.8294 113.653 11.7105L113.52 11.877ZM113.514 12.0205C112.704 12.7734 111.834 13.287 110.73 13.2686L110.727 13.4818C111.909 13.5015 112.83 12.948 113.659 12.1767L113.514 12.0205ZM109.035 11.4504C108.425 12.0407 108.114 12.8131 108.064 13.443C108.04 13.7572 108.079 14.0456 108.189 14.2602C108.301 14.4794 108.49 14.625 108.747 14.625V14.4117C108.585 14.4117 108.462 14.3262 108.379 14.1632C108.293 13.9956 108.254 13.7505 108.277 13.4597C108.323 12.8798 108.612 12.1565 109.183 11.6036L109.035 11.4504ZM108.747 14.625C109.085 14.625 109.401 14.4145 109.659 14.1665C109.92 13.9152 110.14 13.6071 110.285 13.3745L110.105 13.2615C109.964 13.4862 109.755 13.7783 109.511 14.0128C109.264 14.2506 109 14.4117 108.747 14.4117V14.625ZM110.218 13.2139C109.731 13.1057 109.441 12.8571 109.29 12.56C109.137 12.2596 109.122 11.8968 109.212 11.5542L109.006 11.4999C108.906 11.8813 108.919 12.2996 109.1 12.6565C109.282 13.0168 109.63 13.3017 110.172 13.4221L110.218 13.2139ZM109.609 11.2231C109.427 11.5172 109.325 11.9146 109.423 12.2699C109.524 12.6366 109.831 12.9322 110.407 13.0232L110.44 12.8126C109.931 12.7321 109.704 12.4847 109.629 12.2131C109.55 11.9302 109.63 11.594 109.79 11.3356L109.609 11.2231ZM110.519 12.9656C110.722 12.5601 110.886 12.1076 110.916 11.7162C110.931 11.52 110.913 11.3319 110.843 11.1712C110.772 11.0076 110.648 10.8778 110.465 10.8001L110.382 10.9964C110.513 11.0522 110.597 11.1414 110.647 11.2565C110.699 11.3744 110.717 11.5245 110.703 11.6999C110.676 12.0515 110.526 12.4754 110.328 12.8702L110.519 12.9656ZM110.471 10.8029C110.314 10.7243 110.142 10.7571 109.99 10.8438L110.095 11.029C110.21 10.9633 110.305 10.9579 110.376 10.9936L110.471 10.8029ZM109.995 11.0318C110.176 11.1225 110.316 11.3428 110.298 11.6932L110.511 11.7038C110.532 11.2921 110.366 10.9789 110.09 10.841L109.995 11.0318ZM110.299 11.681C110.288 11.747 110.221 11.7917 110.174 11.7839L110.139 11.9942C110.321 12.0245 110.483 11.8787 110.51 11.716L110.299 11.681ZM110.174 11.7839C110.105 11.7722 110.063 11.7205 110.072 11.6564L109.861 11.6263C109.832 11.8289 109.981 11.9678 110.139 11.9942L110.174 11.7839ZM110.073 11.6502C110.084 11.513 110.05 11.3979 109.979 11.3132C109.909 11.2296 109.811 11.1858 109.713 11.1735L109.686 11.3851C109.741 11.3919 109.786 11.4149 109.816 11.4503C109.845 11.4847 109.868 11.5411 109.86 11.6325L110.073 11.6502Z" fill="black"/>
<path d="M31.1113 12.6992C31.1113 14.0653 30.721 15.1236 29.9404 15.8741C29.1748 16.6247 28.1615 17 26.9006 17H23.1402C22.9901 17 22.915 16.9249 22.915 16.7748V1.46319C22.915 1.31308 22.9901 1.23802 23.1402 1.23802H26.5853C27.9514 1.23802 29.0172 1.5983 29.7828 2.31884C30.5634 3.02438 30.9537 4.06017 30.9537 5.42621C30.9537 7.04744 30.3757 8.16579 29.2198 8.78125C29.1448 8.82629 29.1373 8.86382 29.1973 8.89384C29.7978 9.25411 30.2631 9.757 30.5934 10.4025C30.9386 11.048 31.1113 11.8136 31.1113 12.6992ZM25.1668 3.10694C25.1067 3.10694 25.0767 3.13696 25.0767 3.19701V7.97064C25.0767 8.03068 25.1067 8.06071 25.1668 8.06071H26.6078C27.3134 8.06071 27.8613 7.85055 28.2516 7.43023C28.6419 6.9949 28.837 6.39444 28.837 5.62886C28.837 4.83325 28.6419 4.21779 28.2516 3.78246C27.8613 3.33211 27.3134 3.10694 26.6078 3.10694H25.1668ZM26.7204 15.1086C27.411 15.1086 27.9514 14.8759 28.3417 14.4105C28.747 13.9452 28.9496 13.2847 28.9496 12.429C28.9496 11.5584 28.7545 10.8829 28.3642 10.4025C27.9739 9.90711 27.4335 9.65942 26.743 9.65942H25.1668C25.1067 9.65942 25.0767 9.68944 25.0767 9.74949V15.0185C25.0767 15.0785 25.1067 15.1086 25.1668 15.1086H26.7204ZM37.0345 5.76396C37.0345 5.61385 37.1096 5.53879 37.2597 5.53879H38.971C39.1211 5.53879 39.1961 5.61385 39.1961 5.76396V16.7748C39.1961 16.9249 39.1211 17 38.971 17H37.2597C37.1096 17 37.0345 16.9249 37.0345 16.7748V16.1218C37.0345 16.0768 37.0195 16.0543 36.9895 16.0543C36.9745 16.0543 36.9519 16.0693 36.9219 16.0993C36.4716 16.8049 35.751 17.1576 34.7603 17.1576C33.8596 17.1576 33.1315 16.8874 32.5761 16.347C32.0207 15.7916 31.743 14.9509 31.743 13.8251V5.76396C31.743 5.61385 31.818 5.53879 31.9682 5.53879H33.6795C33.8296 5.53879 33.9046 5.61385 33.9046 5.76396V13.3522C33.9046 14.6432 34.415 15.2887 35.4358 15.2887C35.9462 15.2887 36.3365 15.1086 36.6067 14.7483C36.8919 14.373 37.0345 13.8626 37.0345 13.2171V5.76396ZM44.9975 5.38117C45.9432 5.38117 46.6637 5.70392 47.1591 6.34941C47.6695 6.97989 47.9247 7.88057 47.9247 9.05146V16.7748C47.9247 16.9249 47.8496 17 47.6995 17H45.9882C45.8381 17 45.763 16.9249 45.763 16.7748V9.2316C45.763 8.60112 45.6279 8.11325 45.3577 7.76798C45.0875 7.42272 44.7123 7.25009 44.2319 7.25009C43.7365 7.25009 43.3462 7.42272 43.061 7.76798C42.7908 8.09824 42.6407 8.57109 42.6107 9.18656C42.6107 9.27663 42.6031 9.32166 42.5881 9.32166V16.7748C42.5881 16.9249 42.5131 17 42.363 17H40.6517C40.5016 17 40.4265 16.9249 40.4265 16.7748V5.76396C40.4265 5.61385 40.5016 5.53879 40.6517 5.53879H42.363C42.5131 5.53879 42.5881 5.61385 42.5881 5.76396V6.37192C42.5881 6.40195 42.6031 6.42446 42.6332 6.43947C42.6632 6.43947 42.6932 6.41696 42.7232 6.37192C43.2636 5.71142 44.0217 5.38117 44.9975 5.38117ZM54.1989 1.46319C54.1989 1.31308 54.2739 1.23802 54.424 1.23802H56.1353C56.2855 1.23802 56.3605 1.31308 56.3605 1.46319V16.7748C56.3605 16.9249 56.2855 17 56.1353 17H54.424C54.2739 17 54.1989 16.9249 54.1989 16.7748V16.4146C54.1989 16.3845 54.1839 16.362 54.1538 16.347C54.1388 16.332 54.1163 16.3395 54.0863 16.3695C53.8011 16.6397 53.4783 16.8424 53.1181 16.9775C52.7578 17.1126 52.3975 17.1801 52.0372 17.1801C51.0465 17.1801 50.2584 16.8574 49.6729 16.2119C49.1025 15.5514 48.8173 14.6882 48.8173 13.6224V8.93887C48.8173 7.82803 49.1025 6.95737 49.6729 6.32689C50.2584 5.6814 51.0465 5.35865 52.0372 5.35865C52.3975 5.35865 52.7578 5.4262 53.1181 5.56131C53.4783 5.69641 53.8011 5.89906 54.0863 6.16927C54.1163 6.19929 54.1388 6.2068 54.1538 6.19179C54.1839 6.17677 54.1989 6.15426 54.1989 6.12424V1.46319ZM52.6002 15.3112C53.0205 15.3112 53.3732 15.1761 53.6585 14.9059C53.9587 14.6207 54.1388 14.2529 54.1989 13.8026V8.73622C54.1388 8.28588 53.9587 7.9256 53.6585 7.6554C53.3732 7.37018 53.0205 7.22757 52.6002 7.22757C52.1198 7.22757 51.722 7.4002 51.4068 7.74547C51.1065 8.09073 50.9564 8.53357 50.9564 9.07398V13.4648C50.9564 14.0052 51.1065 14.4481 51.4068 14.7933C51.722 15.1386 52.1198 15.3112 52.6002 15.3112ZM57.7265 17C57.5764 17 57.5013 16.9249 57.5013 16.7748V1.46319C57.5013 1.31308 57.5764 1.23802 57.7265 1.23802H59.4378C59.5879 1.23802 59.663 1.31308 59.663 1.46319V16.7748C59.663 16.9249 59.5879 17 59.4378 17H57.7265ZM68.1385 11.9336C68.1385 12.0838 68.0635 12.1588 67.9134 12.1588H62.8245C62.7645 12.1588 62.7344 12.1888 62.7344 12.2489V13.4648C62.7344 14.0052 62.8846 14.4481 63.1848 14.7933C63.485 15.1386 63.8753 15.3112 64.3557 15.3112C64.776 15.3112 65.1288 15.1836 65.414 14.9284C65.6992 14.6732 65.8793 14.343 65.9544 13.9377C65.9994 13.8176 66.082 13.7575 66.2021 13.7575L67.8683 13.8476C67.9434 13.8476 67.9959 13.8701 68.026 13.9152C68.071 13.9602 68.086 14.0127 68.071 14.0728C67.9659 15.0485 67.5906 15.8141 66.9451 16.3695C66.3147 16.9099 65.4515 17.1801 64.3557 17.1801C63.1998 17.1801 62.2766 16.8574 61.5861 16.2119C60.9106 15.5664 60.5728 14.7033 60.5728 13.6224V8.93887C60.5728 7.87306 60.9106 7.00991 61.5861 6.34941C62.2766 5.6889 63.1998 5.35865 64.3557 5.35865C65.5266 5.35865 66.4498 5.6889 67.1253 6.34941C67.8008 7.00991 68.1385 7.87306 68.1385 8.93887V11.9336ZM64.3557 7.22757C63.8753 7.22757 63.485 7.4002 63.1848 7.74547C62.8846 8.09073 62.7344 8.53357 62.7344 9.07398V10.2674C62.7344 10.3274 62.7645 10.3575 62.8245 10.3575H65.9094C65.9694 10.3575 65.9994 10.3274 65.9994 10.2674V9.07398C65.9994 8.53357 65.8493 8.09073 65.5491 7.74547C65.2489 7.4002 64.8511 7.22757 64.3557 7.22757Z" fill="black"/>
<path d="M0 2.11568C0 1.63737 0.387741 1.24963 0.866043 1.24963H9.21915V11.8871H0.866044C0.387742 11.8871 0 11.4994 0 11.0211V2.11568Z" fill="#4153F8" fill-opacity="0.5"/>
<path d="M9.21948 1.24963H17.5726C18.0509 1.24963 18.4386 1.63737 18.4386 2.11568V16.6944C18.4386 17.1727 18.0509 17.5604 17.5726 17.5604H10.0855C9.60722 17.5604 9.21948 17.1727 9.21948 16.6944V1.24963Z" fill="#4153F8"/>
</svg>
